<?xml version="1.0" standalone="no"?>
<!DOCTYPE svg PUBLIC "-//W3C//DTD SVG 1.1//EN" "http://www.w3.org/Graphics/SVG/1.1/DTD/svg11.dtd" >
<svg xmlns="http://www.w3.org/2000/svg">
<metadata></metadata>
<defs>
<font id="gt_pressura_monoregular" horiz-adv-x="1126" >
<font-face units-per-em="2048" ascent="1638" descent="-410" />
<missing-glyph horiz-adv-x="500" />
<glyph unicode="&#xfb01;" d="M70 934v39q0 17 12 29t29 12h157q21 0 21 20v31q0 172 96.5 277.5t251.5 105.5h326q17 0 29 -12t12 -29v-33q0 -17 -12 -29t-29 -12h-326q-111 0 -168 -76.5t-57 -191.5v-31q0 -20 20 -20h510q17 0 29 -12t12 -29v-932q0 -17 -12 -29t-29 -12h-41q-17 0 -29 12t-12 29 v831q0 21 -20 21h-408q-20 0 -20 -21v-831q0 -17 -12 -29t-29 -12h-41q-17 0 -29 12t-12 29v831q0 9 -6 15t-15 6h-157q-17 0 -29 12t-12 29z" />
<glyph unicode="&#xfb02;" d="M90 934v39q0 17 12 29t29 12h137q21 0 21 20v31q0 172 96.5 277.5t251.5 105.5h31q17 0 29 -12t12 -29v-33q0 -17 -12 -29t-29 -12h-31q-111 0 -168 -76.5t-57 -191.5v-31q0 -20 20 -20h387q21 0 21 20v373q0 17 12 29t29 12h41q17 0 29 -12t12 -29v-1366q0 -17 -12 -29 t-29 -12h-41q-17 0 -29 12t-12 29v831q0 9 -6 15t-15 6h-387q-20 0 -20 -21v-831q0 -17 -12 -29t-29 -12h-41q-17 0 -29 12t-12 29v831q0 9 -6 15t-15 6h-137q-17 0 -29 12t-12 29z" />
<glyph horiz-adv-x="2048" />
<glyph horiz-adv-x="2048" />
<glyph unicode="&#xd;" horiz-adv-x="2048" />
<glyph unicode=" " />
<glyph unicode="!" d="M406 33v129q0 12 9.5 22.5t22.5 10.5h127q13 0 23 -10.5t10 -22.5v-129q0 -13 -10 -23t-23 -10h-127q-13 0 -22.5 9.5t-9.5 23.5zM438 430v963q0 17 12 29t29 12h41q17 0 29 -12t12 -29v-963q0 -17 -12 -29t-29 -12h-41q-17 0 -29 12t-12 29z" />
<glyph unicode="&#x22;" d="M287 1032l78 146q6 10 0.5 20t-17.5 10h-20q-17 0 -29 12t-12 29v144q0 17 12 29t29 12h143q17 0 29 -12t12 -29v-154q0 -26 -6 -48t-10 -29t-17 -27l-82 -115q-1 -1 -4 -5.5t-4.5 -6.5t-5 -6t-6 -6t-7 -5t-9 -4.5t-10.5 -2.5t-13 -1h-21q-19 0 -29 15.5t-1 33.5z M618 1032l78 146q6 10 1 20t-17 10h-21q-17 0 -29 12t-12 29v144q0 17 12 29t29 12h144q17 0 29 -12t12 -29v-154q0 -26 -6 -48t-10 -29t-17 -27l-82 -115q-1 -1 -4 -5.5t-4.5 -6.5t-5 -6t-6 -6t-7 -5t-9 -4.5t-10.5 -2.5t-13 -1h-21q-19 0 -29.5 15.5t-1.5 33.5z" />
<glyph unicode="#" d="M80 393l6 37q3 17 17.5 29t31.5 12h103q20 0 24 21l74 409q2 9 -3 15t-14 6h-102q-17 0 -27.5 12t-7.5 29l4 36q3 17 18 29t32 12h102q20 0 24 21l58 332q3 17 16.5 29t30.5 12h45q17 0 27.5 -12t7.5 -29l-58 -332q-3 -21 17 -21h237q21 0 25 21l57 332q3 17 16.5 29 t30.5 12h46q17 0 27 -12t7 -29l-57 -332q-3 -21 16 -21h103q17 0 26.5 -12t6.5 -29l-5 -36q-3 -17 -16.5 -29t-30.5 -12h-102q-21 0 -25 -21l-73 -409q-3 -21 16 -21h102q17 0 26.5 -12t6.5 -29l-6 -37q-3 -17 -16.5 -29t-30.5 -12h-102q-22 0 -25 -20l-53 -291 q-3 -17 -16.5 -29t-30.5 -12h-45q-17 0 -27.5 12t-7.5 29l53 291q3 20 -16 20h-238q-8 0 -16 -5.5t-9 -14.5l-53 -291q-3 -17 -16.5 -29t-30.5 -12h-45q-17 0 -27.5 12t-7.5 29l53 291q3 20 -16 20h-102q-17 0 -27.5 12t-7.5 29zM389 492q-3 -21 17 -21h237q21 0 25 21 l73 409q3 21 -16 21h-238q-9 0 -15.5 -6t-8.5 -15z" />
<glyph unicode="$" d="M123 410v32q0 17 12 29t29 12h51q17 0 29 -12t12 -29v-32q0 -117 82 -206t225 -89q138 0 221.5 81.5t85.5 213.5q1 118 -80 192.5t-227 89.5q-183 19 -292 115.5t-109 257.5q0 153 89.5 252t227.5 125q21 3 21 20v74q0 17 12 29t29 12h45q17 0 29 -12t12 -29v-74 q0 -17 20 -20q144 -26 230 -130.5t86 -246.5v-27q0 -17 -12 -29t-29 -12h-50q-17 0 -29 12t-12 29v27q0 110 -76 182t-192 72q-87 0 -149.5 -37.5t-90.5 -94t-28 -122.5q0 -102 79 -164.5t189 -75.5q210 -25 325.5 -131t115.5 -284q0 -170 -101.5 -282t-255.5 -138 q-20 -3 -20 -21v-71q0 -17 -12 -29t-29 -12h-45q-17 0 -29 12t-12 29v71q0 18 -21 21q-161 27 -258.5 145t-97.5 275z" />
<glyph unicode="%" d="M80 1126q0 287 219 287t219 -287q0 -286 -219 -286t-219 286zM160 57l663 1346q15 31 45 31h27q21 0 32 -18.5t1 -39.5l-668 -1345q-16 -31 -43 -31h-24q-21 0 -32 18t-1 39zM190 1126q0 -87 27.5 -138.5t81.5 -51.5t81.5 51.5t27.5 138.5t-27.5 139t-81.5 52t-81.5 -52 t-27.5 -139zM600 307q0 287 219 287t219 -287t-219 -287t-219 287zM711 307q0 -87 27 -138.5t81 -51.5t81.5 51.5t27.5 138.5t-27.5 139t-81.5 52t-81 -52t-27 -139z" />
<glyph unicode="&#x26;" d="M63 416q0 92 47 185.5t121 154.5q21 19 0 49q-94 133 -94 266q0 163 99 263t276 100q160 0 256 -106t96 -269v-31q0 -17 -12 -29t-29 -12h-41q-17 0 -29 12t-12 29v31q0 110 -62.5 187t-168.5 77q-123 0 -185.5 -68.5t-62.5 -183.5q0 -121 199 -348l348 -391q11 -15 18 2 q14 29 20.5 84t6.5 196q0 17 12 29t29 12h31q17 0 29 -12t12 -29q0 -128 -7 -199.5t-15 -96t-30 -68.5q-12 -18 5 -35l129 -145q19 -20 8 -45t-43 -25h-47q-9 0 -15.5 1t-11.5 4t-7 4t-7 6l-4 5l-76 82q-14 15 -29 0q-128 -118 -317 -118t-313 126t-124 306zM190 416 q0 -135 89.5 -223.5t220.5 -88.5q78 0 141 29t100 68q11 11 2 22l-403 449q-6 8 -14 0q-28 -22 -48.5 -42.5t-42.5 -51.5t-33.5 -72t-11.5 -90z" />
<glyph unicode="'" d="M453 1032l77 146q6 10 1 20t-17 10h-20q-17 0 -29 12t-12 29v144q0 17 12 29t29 12h143q17 0 29 -12t12 -29v-154q0 -26 -6 -48t-10 -29t-17 -27l-82 -115q-1 -1 -4 -5.5t-4.5 -6.5t-5 -6t-6 -6t-7 -5t-9 -4.5t-10.5 -2.5t-13 -1h-21q-19 0 -29 15.5t-1 33.5z" />
<glyph unicode="(" d="M333 646q0 275 15 398q10 85 44.5 161.5t89.5 137.5t137 96.5t180 35.5h65q17 0 29 -12t12 -29v-48q0 -17 -12 -28.5t-29 -11.5h-65q-124 0 -211 -90.5t-107 -211.5q-20 -126 -20 -399t20 -399q6 -38 20.5 -77.5t41.5 -80t62 -72t85.5 -51.5t108.5 -20h78q17 0 29 -12 t12 -29v-47q0 -17 -12 -29t-29 -12h-78q-184 0 -305 116t-146 314q-15 125 -15 400z" />
<glyph unicode=")" d="M209 -96q0 17 12 29t29 12h78q58 0 108.5 20t85 51.5t61.5 72t41.5 80t20.5 77.5q20 126 20 399t-20 399q-20 121 -106.5 211.5t-210.5 90.5h-66q-17 0 -29 11.5t-12 28.5v48q0 17 12 29t29 12h66q98 0 180 -35.5t137 -96.5t89 -137.5t44 -161.5q15 -123 15 -398.5 t-15 -399.5q-25 -199 -145.5 -314.5t-304.5 -115.5h-78q-17 0 -29 12t-12 29v47z" />
<glyph unicode="*" d="M308 1287.5q-5 16.5 3 29.5l23 39q7 13 24.5 17.5t30.5 -3.5l113 -67l-2 131q0 17 12 29t29 12h43q17 0 29 -12t12 -29l-2 -131l112 67q15 9 31.5 4.5t24.5 -18.5l22 -39q7 -14 2.5 -30.5t-18.5 -24.5l-115 -64l115 -63q15 -9 19.5 -26t-3.5 -30l-22 -39 q-7 -13 -25 -17.5t-31 3.5l-112 68l2 -131q0 -17 -12 -29t-29 -12h-43q-17 0 -29 12t-12 29l2 131l-113 -68q-15 -9 -31 -4.5t-24 18.5l-23 39q-7 14 -2 31t19 25l112 63l-112 64q-15 9 -20 25.5z" />
<glyph unicode="+" d="M113 492v43q0 17 12 28.5t29 11.5h325q9 0 15 6t6 15v326q0 17 12 29t29 12h45q17 0 29 -12t12 -29v-326q0 -21 20 -21h326q17 0 29 -11.5t12 -28.5v-43q0 -17 -12 -29t-29 -12h-326q-20 0 -20 -21v-328q0 -17 -12 -29t-29 -12h-45q-17 0 -29 12t-12 29v328q0 9 -6 15 t-15 6h-325q-17 0 -29 12t-12 29z" />
<glyph unicode="," d="M453 41v143q0 17 12 29t29 12h143q17 0 29 -12t12 -29v-153q0 -26 -6 -48t-10.5 -30t-16.5 -27l-82 -114q-1 -1 -4 -5.5t-4.5 -6.5t-5 -6t-6 -6t-7 -5t-9 -4.5t-10.5 -2.5t-13 -1h-21q-19 0 -29 15.5t-1 33.5l77 145q6 11 1 21t-17 10h-20q-17 0 -29 12t-12 29z" />
<glyph unicode="-" d="M242 510v72q0 17 12 29t29 12h559q17 0 29 -12t12 -29v-72q0 -17 -12 -29t-29 -12h-559q-17 0 -29 12t-12 29z" />
<glyph unicode="." d="M451 41v143q0 17 12 29t29 12h143q17 0 29 -12t12 -29v-143q0 -17 -12 -29t-29 -12h-143q-17 0 -29 12t-12 29z" />
<glyph unicode="/" d="M211 33l586 1390q11 31 39 31h43q20 0 30.5 -17.5t1.5 -39.5l-581 -1391q-13 -31 -43 -31h-43q-21 0 -31.5 17.5t-1.5 40.5z" />
<glyph unicode="0" d="M118 718q0 183 15 306q8 69 29 130.5t56.5 116t84 94t115 62.5t145.5 23q182 0 293.5 -112.5t136.5 -313.5q15 -126 14.5 -307t-14.5 -307q-10 -87 -40.5 -162t-82 -135t-130.5 -94.5t-177 -34.5q-182 0 -293.5 112.5t-136.5 313.5q-15 125 -15 308zM241 717 q0 -178 17 -307q7 -51 25 -99.5t52 -97.5t93 -79t135 -30q55 0 102 17.5t81 47t59.5 69.5t40.5 82.5t22 89.5q19 129 19 307t-19 307q-7 52 -25 100.5t-51.5 97t-92.5 78t-136 29.5q-67 0 -123 -26t-93 -70t-59.5 -97t-29.5 -112q-17 -129 -17 -307z" />
<glyph unicode="1" d="M182 41v43q0 17 12 29t29 12h307q21 0 21 20v1076q0 8 -7.5 10.5t-11.5 -2.5l-286 -361q-12 -13 -28.5 -6.5t-16.5 23.5v86q0 37 41 84l286 360q13 19 41 19h64q17 0 29 -12t12 -29v-1248q0 -20 20 -20h248q17 0 29 -12t12 -29v-43q0 -17 -12 -29t-29 -12h-719 q-17 0 -29 12t-12 29z" />
<glyph unicode="2" d="M152 41v76q0 33 18 51l494 555q40 44 62.5 73t46 71t34 88.5t10.5 103.5q0 112 -67 191t-193 79q-114 0 -187 -83.5t-73 -186.5v-31q0 -17 -12 -29t-29 -12h-47q-17 0 -29 12t-12 29v31q0 164 112.5 277.5t276.5 113.5q167 0 276 -107.5t109 -283.5q0 -211 -172 -404 l-448 -497q-8 -9 -3 -21t19 -12h596q17 0 29 -12t12 -29v-43q0 -17 -12 -29t-29 -12h-741q-17 0 -29 12t-12 29z" />
<glyph unicode="3" d="M137 406v14q0 17 12 29t29 12h47q17 0 29 -12t12 -29v-14q0 -121 86.5 -206t214.5 -85q131 0 210 83.5t79 207.5q0 56 -16.5 105t-50 89t-89.5 63t-129 23h-14q-17 0 -29 12t-12 29v45q0 17 12 29t29 12h14q116 0 185 70.5t69 175.5q0 108 -67.5 184t-190.5 76 q-124 0 -197 -79t-73 -181v-31q0 -17 -12 -29t-29 -12h-47q-17 0 -29 12t-12 29v31q0 165 115.5 278t283.5 113q166 0 277.5 -113t111.5 -278q0 -175 -118 -281q-29 -25 -2 -49q70 -60 110.5 -144.5t40.5 -178.5q0 -178 -121 -300t-299 -122q-181 0 -305.5 122.5 t-124.5 299.5z" />
<glyph unicode="4" d="M115 328v26q0 39 32 101l521 950q9 17 17.5 23t25.5 6h84q17 0 29 -12t12 -29v-965q0 -20 20 -20h115q17 0 29 -12t12 -29v-39q0 -17 -12 -29t-29 -12h-115q-20 0 -20 -21v-225q0 -17 -12 -29t-29 -12h-39q-17 0 -29 12t-12 29v225q0 9 -6 15t-15 6h-538q-17 0 -29 12 t-12 29zM262 424q-10 -16 8 -16h424q21 0 21 20v799q0 9 -7 9.5t-10 -5.5z" />
<glyph unicode="5" d="M154 358q0 20 11.5 30.5t29.5 10.5h43q24 0 32.5 -10.5t8.5 -30.5q0 -100 81.5 -176t190.5 -76q91 0 160.5 52.5t105 135.5t35.5 181q0 150 -83 253t-218 103q-48 0 -86.5 -16t-65 -45.5t-43 -57.5t-30.5 -65q-10 -22 -39 -22h-56q-17 0 -29 12t-12 29v727q0 17 12 29 t29 12h648q17 0 29 -12t12 -29v-41q0 -17 -12 -29t-29 -12h-549q-9 0 -15 -6t-6 -15v-379q0 -17 11.5 -24t33.5 8q73 59 197 59q187 0 304.5 -139.5t117.5 -339.5q0 -132 -50 -243t-147.5 -179.5t-224.5 -68.5q-165 0 -281 107.5t-116 266.5z" />
<glyph unicode="6" d="M132.5 717q0.5 181 14.5 307q21 185 130.5 305.5t281.5 120.5q164 0 278.5 -113.5t114.5 -277.5q0 -17 -12 -29t-29 -12h-45q-17 0 -29 12t-12 29q0 106 -71 187t-195 81q-116 0 -191.5 -87.5t-88.5 -215.5q-10 -96 -7 -172q0 -12 10.5 -17.5t22.5 3.5q116 88 266 88 q170 0 289 -122t131 -298q3 -49 0 -107q-9 -175 -128.5 -295t-291.5 -120q-173 0 -287 120.5t-137 305.5q-15 126 -14.5 307zM281 397q11 -121 88 -203.5t202 -82.5t202.5 82.5t88.5 203.5q6 60 0 111q-7 76 -42 141t-100.5 107.5t-148.5 42.5q-128 0 -203 -78t-87 -213 q-4 -70 0 -111z" />
<glyph unicode="7" d="M154 1352v41q0 17 12 29t29 12h737q17 0 29 -12t12 -29v-76q0 -19 -10 -41l-517 -1245q-14 -31 -38 -31h-48q-25 0 -34 16.5t-2 32.5l514 1241q3 8 -1.5 14.5t-13.5 6.5h-628q-17 0 -29 12t-12 29z" />
<glyph unicode="8" d="M137 406q0 94 40.5 177.5t111.5 145.5q25 22 -2 49q-117 117 -117 281q0 159 113 275t280 116t280 -116t113 -275q0 -165 -116 -281q-27 -27 -2 -49q71 -62 111 -145t40 -178q0 -181 -117 -301.5t-309 -120.5t-309 120.5t-117 301.5zM264 406q0 -128 83 -210.5t216 -82.5 t216 82.5t83 210.5t-79.5 206t-219.5 78t-219.5 -78t-79.5 -206zM297 1059q0 -111 73 -181.5t193 -70.5t193 70.5t73 181.5q0 106 -74.5 184t-191.5 78t-191.5 -78t-74.5 -184z" />
<glyph unicode="9" d="M131 928q-3 48 0 106q9 175 128.5 295.5t291.5 120.5q173 0 288.5 -120.5t137.5 -305.5q16 -130 17 -298t-17 -306q-30 -210 -136 -323t-282 -113q-108 0 -204 51.5t-154 142t-58 197.5q0 17 12 29t29 12h45q17 0 29 -12t12 -29q0 -106 86.5 -187.5t202.5 -81.5 q122 0 198 83t99 221q16 96 8 186q-2 14 -12.5 18t-24.5 -6q-124 -100 -276 -100q-170 0 -289 122t-131 298zM260 926q9 -58 29.5 -108t54.5 -92t87 -66.5t120 -24.5q131 0 204 79t87 212q6 50 0 110q-6 50 -25.5 98t-53 92t-88.5 70.5t-124 26.5q-67 0 -120 -24t-87 -66 t-54.5 -91t-29.5 -106q-7 -48 0 -110z" />
<glyph unicode=":" d="M451 41v143q0 17 12 29t29 12h143q17 0 29 -12t12 -29v-143q0 -17 -12 -29t-29 -12h-143q-17 0 -29 12t-12 29zM451 819v144q0 17 12 29t29 12h143q17 0 29 -12t12 -29v-144q0 -17 -12 -29t-29 -12h-143q-17 0 -29 12t-12 29z" />
<glyph unicode=";" d="M453 41v143q0 17 12 29t29 12h143q17 0 29 -12t12 -29v-153q0 -26 -6 -48t-10.5 -30t-16.5 -27l-82 -114q-1 -1 -4 -5.5t-4.5 -6.5t-5 -6t-6 -6t-7 -5t-9 -4.5t-10.5 -2.5t-13 -1h-21q-19 0 -29 15.5t-1 33.5l77 145q6 11 1 21t-17 10h-20q-17 0 -29 12t-12 29zM453 819 v144q0 17 12 29t29 12h143q17 0 29 -12t12 -29v-144q0 -17 -12 -29t-29 -12h-143q-17 0 -29 12t-12 29z" />
<glyph unicode="&#x3c;" d="M154 494v38q0 29 30 46l742 446q14 9 30.5 -3t16.5 -36v-57q0 -24 -31 -43l-616 -365q-6 -3 -6 -8t6 -8l616 -365q31 -19 31 -43v-57q0 -24 -16.5 -36t-30.5 -3l-742 449q-30 17 -30 45z" />
<glyph unicode="=" d="M113 305v51q0 17 12 29t29 12h819q17 0 29 -12t12 -29v-51q0 -17 -12 -29t-29 -12h-819q-17 0 -29 12t-12 29zM113 670v51q0 17 12 29t29 12h819q17 0 29 -12t12 -29v-51q0 -17 -12 -29t-29 -12h-819q-17 0 -29 12t-12 29z" />
<glyph unicode="&#x3e;" d="M154 39v57q0 25 30 43l617 365q6 3 6 8t-6 8l-617 365q-30 18 -30 43v57q0 24 16.5 36t30.5 3l741 -446q31 -17 31 -46v-38q0 -28 -31 -45l-741 -449q-14 -9 -30.5 3t-16.5 36z" />
<glyph unicode="?" d="M190 1044v15q0 165 105.5 280t261.5 115q165 0 270 -97.5t105 -256.5q0 -27 -4.5 -53.5t-10 -46t-18.5 -43t-20.5 -36.5t-26 -35t-26 -30t-29.5 -31t-27 -28q-7 -7 -41.5 -39t-59.5 -57.5t-48 -61.5t-23 -64v-145q0 -17 -12 -29t-29 -12h-41q-17 0 -29 12t-12 29v145 q0 82 37 125q42 49 102.5 104t61.5 56q3 3 19.5 18.5t25 24.5t24 27.5t24.5 34.5t19 37.5t14.5 46t4.5 51.5q0 104 -68 167.5t-182 63.5q-103 0 -173.5 -79t-70.5 -193v-15q0 -17 -12 -28.5t-29 -11.5h-41q-17 0 -29 11.5t-12 28.5zM444 33v129q0 12 10 22.5t23 10.5h127 q13 0 23 -10.5t10 -22.5v-129q0 -13 -9.5 -23t-23.5 -10h-127q-13 0 -23 10t-10 23z" />
<glyph unicode="@" d="M78 406v294q0 215 140 351.5t353 136.5q223 0 355.5 -126t132.5 -341v-307q0 -78 -56.5 -133.5t-134.5 -55.5q-51 0 -84 21q-22 14 -38 14.5t-41 -14.5q-57 -31 -134 -31q-276 0 -276 344t276 344q118 0 191.5 -70.5t73.5 -181.5v-276q0 -20 16 -32.5t37 -12.5 q57 0 57 80v311q0 155 -99 254.5t-280 99.5q-176 0 -275 -108.5t-99 -266.5v-294q0 -76 22 -138t58 -103t85.5 -69t102.5 -40.5t110 -12.5q113 0 217 49q20 9 35 -0.5t15 -30.5v-26q0 -5 -0.5 -10t-3 -9.5t-3.5 -7t-5.5 -6.5t-6 -5.5t-7.5 -5.5t-7 -4.5t-8.5 -5t-8.5 -4.5 q-32 -19 -95.5 -32t-121.5 -13q-100 0 -187 28.5t-156.5 84t-109.5 148.5t-40 213zM414 563q0 -36 1 -56t5 -52.5t14 -51t26.5 -38t44.5 -28.5t66 -9q78 0 116 42t38 95v186q0 56 -37.5 98t-116.5 42q-85 0 -121 -58.5t-36 -169.5z" />
<glyph unicode="A" d="M82 41l391 1362q3 13 14 22t25 9h102q14 0 25 -9t14 -22l391 -1362q1 -3 1 -7q0 -11 -8 -21q-10 -13 -33 -13h-52q-14 0 -25 9t-14 22l-100 346q-10 29 -39 29h-422q-29 0 -39 -29l-100 -346q-3 -13 -14 -22t-25 -9h-51q-23 0 -33 13q-8 10 -9 21q0 4 1 7zM367 555 q-1 -5 -1 -9q0 -14 17 -14h360q18 0 18 14q0 4 -1 9l-187 696q-3 13 -8 13h-4q-5 0 -8 -13z" />
<glyph unicode="B" d="M168 41v1352q0 17 12 29t29 12h358q168 0 285 -108.5t117 -272.5q0 -75 -30.5 -151.5t-86.5 -125.5q-12 -10 -12 -23t12 -22q63 -51 104 -138.5t41 -174.5q0 -177 -125.5 -297.5t-304.5 -120.5h-358q-17 0 -29 12t-12 29zM295 152q0 -21 20 -21h275q117 0 198.5 82 t81.5 199t-81.5 198.5t-198.5 81.5h-275q-20 0 -20 -20v-520zM295 834q0 -21 20 -21h283q101 0 171.5 71.5t70.5 172.5q0 102 -70.5 174t-171.5 72h-283q-20 0 -20 -21v-448z" />
<glyph unicode="C" d="M98 717.5q0 183.5 17 306.5q12 85 47 160.5t91 135.5t138 95t180 35q99 0 185 -35t145 -93.5t93 -136t34 -161.5v-8q0 -17 -12 -29t-29 -12h-55q-17 0 -29 12t-12 29v8q0 119 -89.5 207t-230.5 88q-137 0 -218.5 -85.5t-100.5 -209.5q-19 -126 -19 -307t19 -307 q5 -39 17.5 -77t38 -78t60 -70.5t87.5 -50t116 -19.5q79 0 142.5 28.5t101 74t57 95t19.5 97.5v8q0 17 12 29t29 12h55q17 0 29 -12t12 -29v-8q0 -129 -63.5 -227.5t-166.5 -148.5t-227 -50q-185 0 -307.5 114t-148.5 312q-17 124 -17 307.5z" />
<glyph unicode="D" d="M141 41v1352q0 17 12 29t29 12h369q193 0 312.5 -116.5t144.5 -293.5q17 -123 17 -306t-17 -308q-26 -196 -148 -303t-309 -107h-369q-17 0 -29 12t-12 29zM272 152q0 -9 6 -15t15 -6h258q79 0 140 26t97 69.5t55.5 89t26.5 94.5q19 126 19 307t-19 307 q-19 122 -100 200.5t-219 78.5h-258q-9 0 -15 -6t-6 -15v-1130z" />
<glyph unicode="E" d="M199 41v1352q0 17 12 29t29 12h682q17 0 29 -12t12 -29v-50q0 -17 -12 -28.5t-29 -11.5h-572q-20 0 -20 -21v-465q0 -20 20 -20h549q17 0 29 -12t12 -29v-47q0 -17 -12 -29t-29 -12h-549q-20 0 -20 -21v-495q0 -21 20 -21h576q17 0 29 -12t12 -29v-49q0 -17 -12 -29 t-29 -12h-686q-17 0 -29 12t-12 29z" />
<glyph unicode="F" d="M199 41v1352q0 17 12 29t29 12h682q17 0 29 -12t12 -29v-50q0 -17 -12 -28.5t-29 -11.5h-572q-20 0 -20 -21v-463q0 -20 20 -20h549q17 0 29 -12t12 -29v-49q0 -17 -12 -29t-29 -12h-549q-20 0 -20 -21v-606q0 -17 -12 -29t-29 -12h-49q-17 0 -29 12t-12 29z" />
<glyph unicode="G" d="M98 717.5q0 183.5 17 306.5q12 85 47 160.5t91 135.5t138 95t180 35q200 0 328.5 -123t128.5 -303v-8q0 -17 -12 -29t-29 -12h-55q-17 0 -29 12t-12 29v8q0 129 -88 212t-232 83q-137 0 -218.5 -85.5t-100.5 -209.5q-19 -126 -19 -307t19 -307q5 -39 17.5 -77t38 -78 t60 -70.5t87.5 -50t116 -19.5q64 0 118.5 19t92 50t64 70t39 79t12.5 77v221q0 20 -20 20h-250q-17 0 -29 12t-12 29v49q0 17 12 29t29 12h360q17 0 29 -12t12 -29v-331q0 -129 -63.5 -227.5t-166.5 -148.5t-227 -50q-185 0 -307.5 114t-148.5 312q-17 124 -17 307.5z" />
<glyph unicode="H" d="M143 41v1352q0 17 12 29t29 12h49q17 0 29 -12t12 -29v-574q0 -20 21 -20h536q21 0 21 20v574q0 17 12 29t29 12h49q17 0 29 -12t12 -29v-1352q0 -17 -12 -29t-29 -12h-49q-17 0 -29 12t-12 29v606q0 9 -6 15t-15 6h-536q-9 0 -15 -6t-6 -15v-606q0 -17 -12 -29t-29 -12 h-49q-17 0 -29 12t-12 29z" />
<glyph unicode="I" d="M158 41v43q0 17 12 29t29 12h276q21 0 21 20v1145q0 9 -6 15t-15 6h-256q-17 0 -29 12t-12 29v41q0 17 12 29t29 12h686q17 0 29 -12t12 -29v-41q0 -17 -12 -29t-29 -12h-256q-20 0 -20 -21v-1145q0 -20 20 -20h277q17 0 29 -12t12 -29v-43q0 -17 -12 -29t-29 -12h-727 q-17 0 -29 12t-12 29z" />
<glyph unicode="J" d="M113 393v17q0 17 12 29t29 12h51q17 0 29 -12t12 -29v-17q0 -113 78 -195.5t198 -82.5q129 0 204 74t75 225v979q0 17 12 29t29 12h49q17 0 29 -12t12 -29v-1000q0 -185 -116.5 -297t-293.5 -112q-169 0 -289 120t-120 289z" />
<glyph unicode="K" d="M211 41v1352q0 17 12 29t29 12h49q17 0 29 -12t12 -29v-541q0 -7 6.5 -8t9.5 4l512 563q17 23 54 23h32q35 0 45 -26t-10 -48l-547 -596q-21 -28 -2 -49l582 -639q13 -13 13 -30q0 -8 -3 -18q-10 -28 -47 -28h-45q-7 0 -14 1.5t-11.5 3.5t-10 6t-7 5.5l-5.5 5.5l-5 5 l-531 585q-3 5 -9.5 4t-6.5 -8v-567q0 -17 -12 -29t-29 -12h-49q-17 0 -29 12t-12 29z" />
<glyph unicode="L" d="M246 41v1352q0 17 12 29t29 12h49q17 0 29 -12t12 -29v-1241q0 -21 20 -21h543q17 0 29 -12t12 -29v-49q0 -17 -12 -29t-29 -12h-653q-17 0 -29 12t-12 29z" />
<glyph unicode="M" d="M137 41v1352q0 17 12 29t29 12h123q32 0 43 -35l209 -656q2 -6 9.5 -6.5t10.5 6.5l209 656q11 35 43 35h123q17 0 29 -12t12 -29v-1352q0 -17 -12 -29t-29 -12h-41q-17 0 -29 12t-12 29v1173q0 9 -8.5 11.5t-11.5 -6.5l-211 -672q-11 -35 -43 -35h-57q-32 0 -43 35 l-211 672q-3 9 -12 6.5t-9 -11.5v-1173q0 -17 -12 -29t-29 -12h-41q-17 0 -29 12t-12 29z" />
<glyph unicode="N" d="M154 41v1352q0 17 12 29t29 12h106q17 0 25.5 -6.5t17.5 -28.5l490 -1166q3 -6 9.5 -4t6.5 9v1155q0 17 12 29t29 12h41q17 0 29 -12t12 -29v-1352q0 -17 -12 -29t-29 -12h-107q-17 0 -25.5 6.5t-17.5 28.5l-489 1175q-2 4 -6 5t-7.5 -1.5t-3.5 -7.5v-1165 q0 -17 -11.5 -29t-28.5 -12h-41q-17 0 -29 12t-12 29z" />
<glyph unicode="O" d="M89 717.5q0 183.5 17 306.5q16 115 71 209.5t155.5 155.5t230.5 61t230.5 -61t155.5 -155.5t71 -209.5q17 -123 17 -306t-17 -308q-26 -198 -149 -312t-308 -114t-308 114t-149 312q-17 124 -17 307.5zM225 717q0 -181 19 -307q5 -39 17.5 -77t38 -78t60 -70.5t87.5 -50 t116 -19.5t116 19.5t87.5 50t60 70.5t38.5 78t18 77q19 126 19 307t-19 307q-19 124 -101 209.5t-219 85.5t-218.5 -85.5t-100.5 -209.5q-19 -126 -19 -307z" />
<glyph unicode="P" d="M174 41v1352q0 17 12 29t29 12h348q179 0 304.5 -126t125.5 -304q0 -179 -126 -305t-304 -126h-237q-21 0 -21 -20v-512q0 -17 -12 -29t-29 -12h-49q-17 0 -29 12t-12 29zM305 725q0 -20 21 -20h237q123 0 211 88t88 211t-88 211t-211 88h-237q-9 0 -15 -6t-6 -15v-557z " />
<glyph unicode="Q" d="M89 717.5q0 183.5 17 306.5q16 115 71 209.5t155.5 155.5t230.5 61t230.5 -61t155.5 -155.5t71 -209.5q17 -123 17 -306t-17 -308q-24 -195 -150 -312q-13 -13 -6 -28l105 -197q10 -21 -1 -39t-32 -18h-57q-25 0 -41 30l-86 154q-10 16 -50 4q-64 -20 -139 -20 q-185 0 -308 114t-149 312q-17 124 -17 307.5zM225 717q0 -181 19 -307q5 -39 17.5 -77t38 -78t60 -70.5t87.5 -50t116 -19.5t116 19.5t87.5 50t60 70.5t38.5 78t18 77q19 126 19 307t-19 307q-19 124 -101 209.5t-219 85.5t-218.5 -85.5t-100.5 -209.5q-19 -126 -19 -307z " />
<glyph unicode="R" d="M170 41v1352q0 17 12 29t29 12h348q179 0 304.5 -126t125.5 -304q0 -131 -62.5 -223.5t-181.5 -166.5q-22 -14 -22 -36q0 -13 8 -29l258 -488q7 -12 7 -24q0 -10 -5 -18q-11 -19 -41 -19h-45q-20 0 -36.5 13t-24 27t-19 40t-16.5 35l-225 434q-12 24 -39 24h-223 q-21 0 -21 -20v-512q0 -17 -12 -29t-29 -12h-49q-17 0 -29 12t-12 29zM301 725q0 -20 21 -20h237q123 0 211 88t88 211t-88 211t-211 88h-237q-9 0 -15 -6t-6 -15v-557z" />
<glyph unicode="S" d="M123 410v32q0 17 12 29t29 12h51q17 0 29 -12t12 -29v-32q0 -117 82 -206t225 -89q138 0 221.5 81.5t85.5 213.5v6q0 64 -22 112q-23 50 -73.5 84t-112 56.5t-156.5 44.5q-52 12 -94.5 27t-91 43t-81.5 64t-55 92.5t-22 125.5q0 119 57 208t147 133t197 44 q178 0 289 -111.5t111 -273.5v-27q0 -17 -12 -29t-29 -12h-50q-17 0 -29 12t-12 29v27q0 110 -76 182t-192 72q-87 0 -149.5 -37.5t-90.5 -94t-28 -122.5q0 -34 9 -62t23 -48t37 -37.5t44.5 -28.5t53 -22t55 -17.5t58 -15.5t54.5 -15q72 -22 124.5 -44.5t102.5 -56.5 t80.5 -75t49 -100t18.5 -133q0 -129 -62.5 -228t-162 -148.5t-216.5 -49.5q-194 0 -317 123.5t-123 302.5z" />
<glyph unicode="T" d="M94 1343v50q0 17 12 29t29 12h860q17 0 29 -12t12 -29v-50q0 -17 -12 -28.5t-29 -11.5h-342q-20 0 -20 -21v-1241q0 -17 -12 -29t-29 -12h-51q-17 0 -29 12t-12 29v1241q0 9 -6 15t-15 6h-344q-17 0 -29 11.5t-12 28.5z" />
<glyph unicode="U" d="M123 424v969q0 17 12 29t29 12h49q17 0 29 -12t12 -29v-969q0 -125 90 -217t219 -92t219 92t90 217v969q0 17 12 29t29 12h50q17 0 29 -12t12 -29v-969q0 -183 -129 -311.5t-312 -128.5t-311.5 128.5t-128.5 311.5z" />
<glyph unicode="V" d="M72 1384q-2 5 -2 11q0 11 8 23q10 16 33 16h59q31 0 39 -31l338 -1208q3 -13 12 -13h4q9 0 12 13l340 1208q8 31 39 31h60q24 0 34 -14q7 -10 7 -22q0 -6 -2 -12l-391 -1355q-9 -31 -39 -31h-123q-30 0 -39 31z" />
<glyph unicode="W" d="M82 1393v6q0 13 8 23q10 12 33 12h51q36 0 39 -31l119 -1176q2 -9 12 -9t12 9l123 766q6 31 39 31h94q33 0 39 -31l109 -766q2 -9 12 -9t12 9l127 1176q3 31 39 31h51q23 0 33 -12q8 -10 8 -23v-6l-168 -1362q-1 -14 -12.5 -22.5t-25.5 -8.5h-138q-14 0 -26 8.5t-13 22.5 l-86 741q-1 5 -3.5 7t-5 0t-3.5 -7l-115 -741q-6 -31 -38 -31h-138q-14 0 -26 8.5t-13 22.5z" />
<glyph unicode="X" d="M121 57l356 672q10 16 2 29l-327 618q-10 21 0.5 39.5t31.5 18.5h64q26 0 39 -31l266 -512q3 -7 8 -7t8 7l267 512q13 31 38 31h64q21 0 32 -18.5t1 -39.5l-328 -618q-8 -13 2 -29l359 -672q5 -10 5 -19q0 -10 -6 -20q-11 -18 -32 -18h-72q-28 0 -41 31l-289 561 q-3 8 -8 8t-8 -8l-289 -561q-13 -31 -43 -31h-67q-21 0 -32 18q-6 9 -6 20q0 9 5 19z" />
<glyph unicode="Y" d="M135 1376q-4 11 -4 20q0 11 5 20q11 18 32 18h65q28 0 39 -31l285 -731q3 -8 8 -8t8 8l281 731q11 31 39 31h65q21 0 32 -18q5 -9 5 -20q0 -9 -4 -20l-358 -882v-453q0 -17 -12 -29t-29 -12h-53q-17 0 -29 12t-12 29v451z" />
<glyph unicode="Z" d="M141 41v96q0 15 11 33l665 1112q5 8 1.5 14.5t-13.5 6.5h-602q-17 0 -29 11.5t-12 28.5v50q0 17 12 29t29 12h721q17 0 29 -12t12 -29v-90q0 -15 -11 -33l-657 -1116q-5 -8 -1.5 -14.5t13.5 -6.5h635q17 0 29 -12t12 -29v-51q0 -17 -12 -29t-29 -12h-762q-17 0 -29 12 t-12 29z" />
<glyph unicode="[" d="M408 -143v1577q0 17 12 29t29 12h409q17 0 29 -12t12 -29v-33q0 -17 -12 -29t-29 -12h-315q-9 0 -15 -6t-6 -15v-1388q0 -9 6 -15t15 -6h319q17 0 29 -12t12 -29v-32q0 -17 -12 -29t-29 -12h-413q-17 0 -29 12t-12 29z" />
<glyph unicode="\" d="M213 1397q-9 21 1.5 39t31.5 18h43q28 0 39 -31l585 -1390q9 -23 -1 -40.5t-31 -17.5h-43q-30 0 -43 31z" />
<glyph unicode="]" d="M223 -111q0 17 12 29t29 12h320q20 0 20 21v1388q0 21 -20 21h-316q-17 0 -29 12t-12 29v33q0 17 12 29t29 12h410q17 0 29 -12t12 -29v-1577q0 -17 -12 -29t-29 -12h-414q-17 0 -29 12t-12 29v32z" />
<glyph unicode="^" d="M232.5 1215q-6.5 17 3.5 26l241 229q25 25 62 25h45q34 0 59 -25l242 -229q10 -9 3 -26t-26 -17h-88q-30 0 -63 33l-138 133q-14 14 -28 0l-135 -133q-33 -33 -64 -33h-88q-19 0 -25.5 17z" />
<glyph unicode="_" d="M-20 -41q0 17 11.5 29t28.5 12h1086q17 0 29 -12t12 -29v-39q0 -17 -12 -29t-29 -12h-1086q-17 0 -28.5 12t-11.5 29v39z" />
<glyph unicode="`" d="M386 1478q7 17 26 17h118q30 0 54 -33l155 -223q8 -11 -0.5 -26t-27.5 -15h-39q-37 0 -62 25l-221 229q-10 9 -3 26z" />
<glyph unicode="a" d="M176 307q0 131 90.5 215t247.5 84h293q20 0 20 21v80q0 99 -69.5 162t-177.5 63q-96 0 -168 -50.5t-72 -129.5q0 -16 -9 -24.5t-17 -9.5t-21 -1h-29q-41 0 -41 41q0 91 54 157.5t133.5 97.5t169.5 31q104 0 185 -35t132 -113.5t51 -190.5v-664q0 -17 -12 -29t-29 -12h-18 q-21 0 -29 14l-6.5 13t-7.5 14.5t-10.5 10.5t-16.5 5q-11 0 -37 -12t-54.5 -26.5t-77.5 -26.5t-101 -12q-180 0 -276.5 94t-96.5 233zM297 309q0 -104 69.5 -159.5t172.5 -55.5q142 0 218.5 66t76.5 190v123q0 9 -6 15t-15 6h-299q-91 0 -154 -49t-63 -136z" />
<glyph unicode="b" d="M172 41v1366q0 17 12 29t29 12h39q17 0 29 -12t12 -29v-363q0 -51 51 -51q15 0 42 12.5t71.5 25.5t101.5 13q158 0 267.5 -112.5t121.5 -276.5q5 -72 5.5 -143.5t-5.5 -142.5q-12 -164 -121.5 -276.5t-267.5 -112.5q-52 0 -92 10.5t-59.5 23t-41 23t-40.5 10.5 q-24 0 -52 -33q-14 -14 -28 -14h-33q-17 0 -29 12t-12 29zM297 369q3 -36 12 -70.5t28.5 -71t46.5 -64t70 -45.5t95 -18q71 0 125 26t83.5 68.5t45 85.5t20.5 89q8 72 8.5 143.5t-8.5 142.5q-5 46 -20.5 89t-45.5 85.5t-83.5 68.5t-124.5 26q-52 0 -95 -18t-70 -45.5 t-46.5 -64t-28.5 -71t-12 -70.5q-7 -72 -7 -143t7 -143z" />
<glyph unicode="c" d="M166 369q-5 72 -5 143.5t5 142.5q12 167 123.5 278t290.5 111q167 0 276 -103t109 -245q0 -18 -9 -29.5t-26 -11.5h-47q-15 0 -27 8.5t-12 24.5q0 97 -71.5 166.5t-192.5 69.5q-73 0 -129.5 -26t-89 -68t-49.5 -86t-21 -89q-7 -72 -7 -143.5t7 -142.5q4 -45 21 -89 t49.5 -86t89 -68t129.5 -26q125 0 193.5 72t68.5 162q0 35 39 35h43q17 0 29 -12t12 -29q0 -142 -109 -245t-276 -103q-179 0 -290.5 111t-123.5 278z" />
<glyph unicode="d" d="M178 369q-5 72 -5 143.5t5 142.5q12 164 121.5 276.5t267.5 112.5q57 0 101.5 -13t71.5 -25.5t42 -12.5q52 0 52 51v363q0 17 11.5 29t28.5 12h39q17 0 29 -12t12 -29v-1366q0 -17 -12 -29t-29 -12h-32q-15 0 -29 14q-28 33 -51 33q-22 0 -49.5 -16.5t-73 -33.5 t-111.5 -17q-158 0 -267.5 112.5t-121.5 276.5zM303 369q5 -46 20.5 -89t45.5 -85.5t84 -68.5t125 -26q65 0 114 26t76.5 68.5t42 85.5t18.5 89q7 72 7 143.5t-7 142.5q-4 46 -18.5 89t-42 85.5t-76.5 68.5t-114 26q-71 0 -124.5 -26t-83.5 -68.5t-46 -85.5t-21 -89 q-8 -72 -8 -143t8 -143z" />
<glyph unicode="e" d="M152 369q-5 72 -5 143.5t5 142.5q12 167 126 278t293 111q171 0 290.5 -120t119.5 -289v-131q0 -17 -12 -29t-29 -12h-649q-9 0 -15 -6t-6 -15q0 -156 74.5 -249t226.5 -93q110 0 179.5 56t95.5 137q10 35 47 35h41q17 0 27.5 -10.5t7.5 -30.5q-19 -135 -129.5 -221 t-268.5 -86q-179 0 -293 111t-126 278zM274 598q0 -20 21 -20h553q20 0 20 20q0 153 -82.5 239.5t-212.5 86.5q-138 0 -218.5 -85.5t-80.5 -240.5z" />
<glyph unicode="f" d="M131 934v39q0 17 12 29t29 12h281q20 0 20 20v31q0 172 96.5 277.5t251.5 105.5h92q17 0 29 -12t12 -29v-33q0 -17 -12 -29t-29 -12h-92q-111 0 -168 -76.5t-57 -191.5v-31q0 -20 20 -20h336q17 0 29 -12t12 -29v-39q0 -17 -12 -29t-29 -12h-336q-20 0 -20 -21v-831 q0 -17 -12 -29t-29 -12h-41q-17 0 -29 12t-12 29v831q0 21 -20 21h-281q-17 0 -29 12t-12 29z" />
<glyph unicode="g" d="M178 369q-5 71 -5 143t5 143q12 164 121.5 276.5t267.5 112.5q66 0 111.5 -17t73 -33.5t49.5 -16.5q23 0 51 33q14 14 29 14h32q17 0 29 -12t12 -29v-1044q0 -153 -102.5 -261t-261.5 -108q-130 0 -232.5 74t-130.5 206q-2 8 -2 15q0 33 39 33h33q24 0 35 -10.5t18 -30.5 q24 -68 83 -117t157 -49q110 0 177 75t67 173v41q0 51 -46 51q-14 0 -90.5 -25.5t-130.5 -25.5q-158 0 -267.5 112.5t-121.5 276.5zM303 369q5 -46 21 -89t46 -85.5t83.5 -68.5t124.5 -26q65 0 114 26t76.5 68.5t42 85.5t18.5 89q7 71 7 143t-7 143q-4 46 -18.5 89t-42 85.5 t-76.5 68.5t-114 26q-71 0 -125 -26t-84 -68.5t-45.5 -85.5t-20.5 -89q-9 -71 -9 -143t9 -143z" />
<glyph unicode="h" d="M193 41v1366q0 17 11.5 29t28.5 12h39q17 0 29 -12t12 -29v-371q0 -15 12.5 -29t32.5 -14q15 0 45.5 12.5t76 25.5t98.5 13q157 0 256.5 -103.5t99.5 -252.5v-647q0 -17 -12 -29t-29 -12h-39q-17 0 -29 12t-12 29v647q0 103 -70 169.5t-180 66.5q-109 0 -179.5 -65 t-70.5 -161v-657q0 -17 -12 -29t-29 -12h-39q-17 0 -28.5 12t-11.5 29z" />
<glyph unicode="i" d="M207 41v41q0 17 12 29t29 12h276q21 0 21 20v738q0 20 -21 20h-256q-17 0 -29 12t-12 29v41q0 17 12 29t29 12h359q17 0 29 -12t12 -29v-840q0 -20 20 -20h268q17 0 29 -12t12 -29v-41q0 -17 -12 -29t-29 -12h-708q-17 0 -29 12t-12 29zM508 1307v108q0 12 10 22.5 t23 10.5h106q13 0 23 -10.5t10 -22.5v-108q0 -13 -10 -23t-23 -10h-106q-13 0 -23 10t-10 23z" />
<glyph unicode="j" d="M139 -102q0 17 12 29t31 12h43q17 0 29 -12t12 -29q0 -80 57.5 -140.5t143.5 -60.5q91 0 143 53t52 154v977q0 20 -21 20h-305q-17 0 -29 12t-12 29v41q0 17 12 29t29 12h409q17 0 29 -12t12 -29v-1055q0 -177 -88.5 -267.5t-230.5 -90.5q-135 0 -231.5 96.5t-96.5 231.5 zM616 1307v108q0 12 10 22.5t23 10.5h107q13 0 22.5 -10.5t9.5 -22.5v-108q0 -14 -9.5 -23.5t-22.5 -9.5h-107q-13 0 -23 10t-10 23z" />
<glyph unicode="k" d="M244 41v1366q0 17 12 29t29 12h39q17 0 29 -12t12 -29v-768q0 -16 16 -4l412 362q27 27 57 27h37q22 0 32.5 -13t8 -29t-12.5 -26l-448 -399q-26 -26 0 -49l479 -436q16 -14 16 -31q0 -7 -3 -15q-9 -26 -41 -26h-41q-31 0 -62 31l-434 397q-5 5 -10.5 4t-5.5 -8v-383 q0 -17 -12 -29t-29 -12h-39q-17 0 -29 12t-12 29z" />
<glyph unicode="l" d="M154 41v41q0 17 12 29t29 12h284q10 0 17.5 5.5t7.5 14.5v1162q0 20 -21 20h-247q-17 0 -29 12t-12 29v41q0 17 12 29t29 12h350q17 0 29 -12t12 -29v-1264q0 -20 20 -20h260q17 0 29 -12t12 -29v-41q0 -17 -12 -29t-29 -12h-712q-17 0 -29 12t-12 29z" />
<glyph unicode="m" d="M154 41v942q0 17 12 29t29 12h12q15 0 29 -14q14 -17 26 -17q8 0 24.5 12.5t47 25.5t72.5 13q88 0 141 -73q9 -13 20 -13q13 0 23 13q59 73 176 73q101 0 152 -71t51 -174v-758q0 -17 -12 -29t-29 -12h-39q-17 0 -29 12t-12 29v784q0 50 -35.5 74.5t-81.5 24.5 q-42 0 -75 -28t-33 -71v-784q0 -17 -12 -29t-29 -12h-39q-17 0 -29 12t-12 29v784q0 42 -35.5 70.5t-77.5 28.5q-43 0 -79 -28.5t-36 -70.5v-784q0 -17 -12 -29t-29 -12h-38q-17 0 -29 12t-12 29z" />
<glyph unicode="n" d="M182 41v942q0 17 12 29t29 12h33q15 0 29 -14q1 -2 5 -6.5t6 -6.5t5.5 -6t6.5 -6t7 -4t9 -3t10 -1q22 0 52 16.5t78 33.5t114 17q166 0 266 -92.5t100 -263.5v-647q0 -17 -12 -29t-29 -12h-39q-17 0 -29 12t-12 29v647q0 122 -70.5 179t-189.5 57q-110 0 -185 -65.5 t-75 -160.5v-657q0 -17 -12 -29t-29 -12h-39q-17 0 -29 12t-12 29z" />
<glyph unicode="o" d="M150 369q-5 72 -5 143.5t5 142.5q12 168 123 278.5t290 110.5t290.5 -111t123.5 -278q5 -72 5 -143.5t-5 -142.5q-12 -167 -123.5 -278t-290.5 -111t-290 110.5t-123 278.5zM274 369q4 -45 21 -89t49.5 -86t89 -68t129.5 -26t129.5 26t89 68t49.5 86t21 89q7 72 7 143.5 t-7 142.5q-4 45 -21 89t-49.5 86t-89 68t-129.5 26t-129.5 -26t-89 -68t-49.5 -86t-21 -89q-7 -72 -7 -143t7 -143z" />
<glyph unicode="p" d="M172 -369v1352q0 17 12 29t29 12h33q14 0 28 -14q28 -33 52 -33q22 0 49 16.5t72.5 33.5t111.5 17q158 0 267.5 -112.5t121.5 -276.5q5 -71 5 -143t-5 -143q-12 -164 -121.5 -276.5t-267.5 -112.5q-57 0 -102.5 12.5t-73.5 25.5t-43 13q-47 0 -47 -51v-349q0 -17 -12 -29 t-29 -12h-39q-17 0 -29 12t-12 29zM297 369q3 -36 12 -70.5t28.5 -71t46.5 -64t70 -45.5t95 -18q71 0 124.5 26t83.5 68.5t45.5 85.5t20.5 89q9 71 9 143t-9 143q-5 46 -20.5 89t-45 85.5t-83.5 68.5t-125 26q-52 0 -95 -18t-70 -45.5t-46.5 -64t-28.5 -71t-12 -70.5 q-7 -71 -7 -143t7 -143z" />
<glyph unicode="q" d="M178 369q-5 71 -5 143t5 143q12 164 121.5 276.5t267.5 112.5q66 0 111.5 -17t73 -33.5t49.5 -16.5q23 0 51 33q14 14 29 14h32q17 0 29 -12t12 -29v-1352q0 -17 -12 -29t-29 -12h-39q-17 0 -28.5 12t-11.5 29v349q0 51 -48 51q-15 0 -43 -12.5t-73.5 -25.5t-102.5 -13 q-158 0 -267.5 112.5t-121.5 276.5zM303 369q5 -46 21 -89t46 -85.5t83.5 -68.5t124.5 -26q65 0 114 26t76.5 68.5t42 85.5t18.5 89q7 71 7 143t-7 143q-4 46 -18.5 89t-42 85.5t-76.5 68.5t-114 26q-71 0 -125 -26t-84 -68.5t-45.5 -85.5t-20.5 -89q-9 -71 -9 -143t9 -143z " />
<glyph unicode="r" d="M252 41v942q0 17 12 29t29 12h33q14 0 28 -14q28 -33 52 -33q22 0 53 16.5t80.5 33.5t115.5 17q159 0 261 -95t102 -253q0 -17 -12 -29t-29 -12h-39q-17 0 -29 12t-12 29q0 99 -71 163.5t-191 64.5q-111 0 -186.5 -70.5t-75.5 -177.5v-635q0 -17 -12 -29t-29 -12h-39 q-17 0 -29 12t-12 29z" />
<glyph unicode="s" d="M168 334q0 17 12 29t29 12h39q17 0 29 -12t12 -29q0 -109 78 -172.5t196 -63.5q123 0 198 57t75 142q0 147 -283 188q-59 9 -106 21t-94.5 34t-79 51t-51 72.5t-19.5 98.5q0 78 51 143.5t133.5 102t175.5 36.5q146 0 250.5 -83.5t104.5 -223.5q0 -17 -12 -29t-29 -12h-39 q-17 0 -29 12t-12 29q0 81 -65 137t-169 56t-170.5 -50.5t-66.5 -117.5q0 -27 9 -49t28.5 -37.5t37.5 -26t49.5 -19t50 -12.5t52.5 -10q44 -8 77 -15t77.5 -20.5t77 -29t66.5 -39.5t55.5 -52.5t35.5 -68t14 -86.5q0 -133 -109.5 -225t-283.5 -92q-105 0 -193.5 39.5 t-145 121.5t-56.5 193z" />
<glyph unicode="t" d="M78 934v39q0 17 12 29t29 12h227q21 0 21 20v318q0 17 12 29t29 12h41q17 0 28.5 -12t11.5 -29v-318q0 -20 21 -20h340q17 0 29 -12t12 -29v-39q0 -17 -12 -29t-29 -12h-340q-9 0 -15 -6t-6 -15v-544q0 -103 56.5 -164.5t138.5 -61.5q86 0 137 58t51 147q0 17 12 29 t29 12h43q17 0 29 -12t12 -29q0 -136 -89.5 -231.5t-223.5 -95.5t-225.5 95.5t-91.5 231.5v565q0 9 -6 15t-15 6h-227q-17 0 -29 12t-12 29z" />
<glyph unicode="u" d="M182 336v647q0 17 12 29t29 12h39q17 0 29 -12t12 -29v-647q0 -122 70.5 -179t189.5 -57q110 0 185 65.5t75 160.5v657q0 17 12 29t29 12h39q17 0 29 -12t12 -29v-942q0 -17 -12 -29t-29 -12h-33q-14 0 -28 14q-1 2 -5 6.5t-6 6.5t-5.5 6t-6.5 6t-7 4t-9 3t-10 1 q-22 0 -52 -16.5t-78 -33.5t-114 -17q-166 0 -266.5 93t-100.5 263z" />
<glyph unicode="v" d="M109 977q-3 6 -3 12q0 9 7 19q11 16 34 16h54q28 0 39 -31l307 -829q5 -12 16 -12t15 12l307 829q11 31 39 31h53q23 0 34 -16q7 -10 7 -20q0 -6 -2 -11l-363 -946q-12 -31 -39 -31h-104q-27 0 -39 31z" />
<glyph unicode="w" d="M104 977q-1 4 -1 8q-1 13 7 24q10 15 33 15h43q34 0 39 -31l137 -741q3 -12 14.5 -12t14.5 12l101 516q5 31 38 31h66q34 0 39 -31l100 -516q3 -12 14.5 -12t14.5 12l137 741q5 31 39 31h43q23 0 33 -15q7 -11 7 -24q0 -4 -1 -8l-193 -946q-6 -31 -38 -31h-76 q-33 0 -39 31l-101 528q-1 11 -12 11t-12 -11l-100 -528q-6 -31 -39 -31h-76q-33 0 -39 31z" />
<glyph unicode="x" d="M174 22q-4 8 -5 16q0 14 11 30l305 464q9 15 2 27l-272 397q-17 25 -6.5 46.5t39.5 21.5h45q33 0 45 -20l217 -338q3 -6 8 -6t8 6l217 338q12 20 46 20h45q29 0 39 -21.5t-7 -46.5l-272 -397q-7 -12 2 -27l305 -464q11 -15 11 -30q-1 -8 -5 -16q-10 -22 -39 -22h-49 q-33 0 -45 20l-248 390q-3 6 -8 6t-8 -6l-248 -390q-12 -20 -45 -20h-49q-29 0 -39 22z" />
<glyph unicode="y" d="M125 977q-2 6 -2 11q0 10 7 20q11 16 34 16h57q28 0 39 -31l315 -753q3 -8 8.5 -8t8.5 8l274 753q11 31 39 31h58q23 0 34 -16q7 -9 7 -19q0 -6 -3 -12l-520 -1356q-11 -31 -39 -31h-45q-23 0 -34.5 16t-4.5 32l152 411q6 16 2 27z" />
<glyph unicode="z" d="M164 41v63q0 22 4 32.5t22 31.5l598 717q6 7 2.5 13.5t-12.5 6.5h-553q-17 0 -29 12t-12 29v37q0 17 12 29t29 12h676q17 0 29 -12t12 -29v-59q0 -9 -2 -18t-4 -14.5t-8 -15t-7.5 -12t-10.5 -13.5l-9 -11l-582 -701q-6 -7 -2 -13.5t13 -6.5h592q17 0 29 -12t12 -29v-37 q0 -17 -12 -29t-29 -12h-717q-17 0 -29 12t-12 29z" />
<glyph unicode="{" d="M322 625v61q0 25 40 41l23 10q37 16 37 41v266q0 115 47.5 211.5t145 158t227.5 61.5h86q17 0 29 -12t12 -29v-35q0 -17 -12 -29t-29 -12h-86q-140 0 -219.5 -89.5t-79.5 -224.5v-256q0 -47 -27 -81t-57 -52q30 -18 57 -52.5t27 -80.5v-276q0 -135 79.5 -224.5 t219.5 -89.5h106q17 0 29 -12t12 -29v-34q0 -17 -12 -29t-29 -12h-106q-98 0 -179 35.5t-133 95.5t-80 137t-28 162v286q0 25 -37 41l-23 11q-40 16 -40 41z" />
<glyph unicode="|" d="M506 -102v1536q0 17 12 29t29 12h31q17 0 28.5 -12t11.5 -29v-1536q0 -17 -11.5 -29t-28.5 -12h-31q-17 0 -29 12t-12 29z" />
<glyph unicode="}" d="M137 -109q0 17 12 29t29 12h107q140 0 219.5 89.5t79.5 224.5v276q0 46 27 80.5t57 52.5q-30 18 -57 52t-27 81v256q0 135 -79.5 224.5t-219.5 89.5h-86q-17 0 -29 12t-12 29v35q0 17 12 29t29 12h86q130 0 227.5 -61.5t145 -158t47.5 -211.5v-266q0 -25 36 -41l23 -10 q41 -16 41 -41v-61q0 -25 -41 -41l-23 -11q-36 -16 -36 -41v-286q0 -85 -28 -162t-80 -137t-133 -95.5t-179 -35.5h-107q-17 0 -29 12t-12 29v34z" />
<glyph unicode="~" d="M143 473v49q0 54 54.5 89.5t132.5 35.5q71 0 132 -14.5t98.5 -31.5t100 -31.5t136.5 -14.5q34 0 72 15.5t55 37.5q15 21 37 16.5t22 -34.5v-49q0 -55 -54 -90t-132 -35q-71 0 -132 14.5t-98.5 31.5t-100 31.5t-136.5 14.5q-34 0 -72 -15.5t-55 -37.5q-15 -21 -37.5 -16.5 t-22.5 34.5z" />
<glyph unicode="&#xa0;" />
<glyph unicode="&#xa1;" d="M528 883v129q0 13 9.5 22.5t23.5 9.5h127q14 0 23.5 -9.5t9.5 -22.5v-129q0 -12 -10 -22.5t-23 -10.5h-127q-13 0 -23 10.5t-10 22.5zM561 -348v962q0 17 12 29t29 12h41q17 0 29 -12t12 -29v-962q0 -17 -12 -29t-29 -12h-41q-17 0 -29 12t-12 29z" />
<glyph unicode="&#xa2;" d="M166 369q-10 143 0 286q11 145 98.5 251t231.5 132q20 3 20 21v67q0 17 12 29t29 12h45q17 0 29 -12t12 -29v-67q0 -18 21 -21q137 -25 219 -118.5t82 -223.5q0 -18 -9 -29.5t-26 -11.5h-60q-15 0 -27 8.5t-12 24.5q0 88 -66.5 155.5t-184.5 67.5q-69 0 -123 -24 t-85.5 -63.5t-48.5 -82t-20 -86.5q-10 -143 0 -286q3 -44 20 -86.5t48.5 -82t85.5 -63.5t123 -24q117 0 183 67t66 154q0 35 39 35h56q17 0 29 -12t12 -29q0 -131 -82.5 -225.5t-218.5 -116.5q-21 -3 -21 -21v-67q0 -17 -12 -29t-29 -12h-45q-17 0 -29 12t-12 29v67 q0 18 -20 21q-143 23 -231 130t-99 253z" />
<glyph unicode="&#xa3;" d="M117 41v55q0 17 12 29t29 12h10q62 0 106.5 85.5t44.5 207.5v217q0 10 -5.5 17.5t-14.5 7.5h-123q-17 0 -29 12t-12 29v41q0 17 12 29t29 12h123q20 0 20 20v291q0 148 89 248t231 100q143 0 235.5 -100.5t92.5 -247.5v-21q0 -17 -12 -29t-29 -12h-47q-17 0 -29 12 t-12 29v21q0 36 -10 71.5t-31.5 69.5t-62 55t-95.5 21t-94 -21t-58.5 -55.5t-27.5 -69t-8 -71.5v-291q0 -20 20 -20h315q17 0 29 -12t12 -29v-41q0 -17 -12 -29t-29 -12h-315q-9 0 -14.5 -7.5t-5.5 -17.5v-217q0 -89 -21.5 -169t-50.5 -114q-6 -6 -3.5 -11t11.5 -5h580 q17 0 29 -12t12 -29v-49q0 -17 -12 -29t-29 -12h-807q-19 0 -31 12t-12 29z" />
<glyph unicode="&#xa4;" d="M65 186.5q0 19.5 9 28.5l147 150q-90 117 -90 266q0 142 86 262l-143 145q-9 9 -9 29t9 29l28 28q29 26 58 0l143 -145q119 94 250 94t246 -90l143 141q12 12 28.5 12t28.5 -12l29 -28q9 -9 9 -29t-9 -29l-143 -143q90 -121 90 -264q0 -148 -92 -271l145 -145 q9 -9 9 -28.5t-9 -28.5l-29 -29q-29 -25 -57 0l-147 145q-114 -86 -242 -86q-132 0 -244 88l-149 -147q-12 -12 -29 -12t-29 12l-28 29q-9 9 -9 28.5zM250 631q0 -133 88 -227.5t213 -94.5t213 94.5t88 227.5t-88 227t-213 94t-213 -94t-88 -227z" />
<glyph unicode="&#xa5;" d="M135 1376q-9 23 1.5 40.5t31.5 17.5h65q28 0 39 -31l285 -731q3 -8 8 -8t8 8l281 731q11 31 39 31h65q21 0 31.5 -17.5t1.5 -40.5l-215 -530q-3 -9 1.5 -17t13.5 -8h110q17 0 29 -12t12 -29v-32q0 -17 -12 -29t-29 -12h-168q-14 0 -18 -11l-25 -61q-4 -9 1 -17t14 -8h196 q17 0 29 -12t12 -29v-32q0 -17 -12 -29t-29 -12h-248q-20 0 -20 -21v-434q0 -17 -12 -29t-29 -12h-53q-17 0 -29 12t-12 29v434q0 9 -6 15t-15 6h-252q-17 0 -29 12t-12 29v32q0 17 12 29t29 12h199q9 0 13.5 8t0.5 17l-24 61q-4 11 -19 11h-170q-17 0 -29 12t-12 29v32 q0 17 12 29t29 12h113q9 0 13 8t1 17z" />
<glyph unicode="&#xa6;" d="M500 41v547q0 17 12 29t29 12h45q17 0 29 -12t12 -29v-547q0 -17 -12 -29t-29 -12h-45q-17 0 -29 12t-12 29zM500 860v547q0 17 12 29t29 12h45q17 0 29 -12t12 -29v-547q0 -17 -12 -29t-29 -12h-45q-17 0 -29 12t-12 29z" />
<glyph unicode="&#xa7;" d="M145 629q0 72 39.5 139t106.5 115q22 15 24.5 36.5t-16.5 43.5q-59 72 -59 178q0 148 99 232.5t241 84.5q148 0 238.5 -90t90.5 -242v-61q0 -17 -12 -29t-29 -12h-43q-17 0 -29 12t-12 29v61q0 84 -53 147.5t-151 63.5q-104 0 -153.5 -54t-49.5 -138q0 -89 90 -168 l383 -342q131 -118 131 -270q0 -75 -40.5 -152.5t-100.5 -122.5q-42 -33 -6 -78q51 -64 51 -155q0 -145 -99 -229.5t-241 -84.5q-152 0 -245 85t-93 247v84q0 17 12 29t29 12h43q17 0 29 -12t12 -29v-84q0 -95 57.5 -154t155.5 -59q90 0 145 47t55 148q0 48 -26.5 86.5 t-73.5 79.5q-159 132 -379 335q-65 61 -93 122t-28 149zM270 623q0 -37 20 -80t58 -78l338 -303q15 -12 36 -12t36 12q41 35 68.5 92.5t27.5 107.5q0 37 -21 84.5t-65 88.5l-309 278q-15 15 -35.5 14.5t-38.5 -14.5q-47 -41 -81 -91.5t-34 -98.5z" />
<glyph unicode="&#xa8;" d="M301 1307v108q0 12 10 22.5t23 10.5h106q13 0 23 -10.5t10 -22.5v-108q0 -13 -9.5 -23t-23.5 -10h-106q-14 0 -23.5 10t-9.5 23zM651 1307v108q0 12 10 22.5t23 10.5h107q13 0 22.5 -10.5t9.5 -22.5v-108q0 -14 -9.5 -23.5t-22.5 -9.5h-107q-14 0 -23.5 10t-9.5 23z" />
<glyph unicode="&#xa9;" d="M37 717q0 143 70.5 263.5t191.5 190.5t264 70t263.5 -70t190.5 -190.5t70 -263.5t-70 -264.5t-190.5 -192t-263.5 -70.5t-264 70.5t-191.5 192t-70.5 264.5zM141 717q0 -175 123.5 -298.5t298.5 -123.5q173 0 296.5 123.5t123.5 298.5q0 173 -123.5 296.5t-296.5 123.5 q-175 0 -298.5 -123.5t-123.5 -296.5zM344 647q-5 64 0 127q6 98 61.5 162.5t147.5 64.5q89 0 145 -58t56 -146q0 -23 -19 -23h-61q-23 0 -23 17q0 52 -28 84t-70 32q-48 0 -77 -37t-34 -96q-5 -64 0 -127q5 -59 34 -96t77 -37q42 0 69 30t27 85q0 18 25 18h55q9 0 17 -6.5 t8 -15.5q0 -89 -56 -147t-145 -58q-95 0 -148 63t-61 164z" />
<glyph unicode="&#xaa;" d="M281 1081q0 67 46 115.5t124 48.5h135q10 0 10 10v25q0 34 -27.5 58t-74.5 24q-43 0 -72 -16t-29 -43q0 -17 -22 -17h-45q-21 0 -21 21q0 66 58 104.5t131 38.5q79 0 136.5 -50t57.5 -134v-318q0 -9 -6 -14.5t-14 -5.5h-31q-8 0 -14 6q-1 2 -5.5 9t-7.5 10t-8 3 q-2 0 -46 -19t-89 -19q-90 0 -138 46.5t-48 116.5zM373 1081q0 -36 23 -55.5t67 -19.5q75 0 106 29.5t31 86.5v25q0 10 -10 10h-139q-37 0 -57.5 -21.5t-20.5 -54.5z" />
<glyph unicode="&#xab;" d="M228 532.5q0 11.5 10 28.5l196 330q19 31 51 31h39q31 0 41.5 -18.5t-8.5 -49.5l-174 -297q-9 -13 -9 -23.5t9 -25.5l174 -297q19 -31 8.5 -49.5t-41.5 -18.5h-39q-32 0 -51 31l-196 330q-10 17 -10 28.5zM558 532.5q0 11.5 11 28.5l197 330q19 31 51 31h39 q31 0 41.5 -18.5t-8.5 -49.5l-174 -297q-9 -13 -9 -23.5t9 -25.5l174 -297q19 -31 8.5 -49.5t-41.5 -18.5h-39q-32 0 -51 31l-197 330q-11 17 -11 28.5z" />
<glyph unicode="&#xac;" d="M123 532v41q0 17 12 29t29 12h799q17 0 29 -12t12 -29v-348q0 -17 -12 -29t-29 -12h-41q-17 0 -29 12t-12 29v246q0 9 -6 15t-15 6h-696q-17 0 -29 11.5t-12 28.5z" />
<glyph unicode="&#xad;" d="M242 510v72q0 17 12 29t29 12h559q17 0 29 -12t12 -29v-72q0 -17 -12 -29t-29 -12h-559q-17 0 -29 12t-12 29z" />
<glyph unicode="&#xae;" d="M37 717q0 143 70.5 263.5t191.5 190.5t264 70t263.5 -70t190.5 -190.5t70 -263.5t-70 -264.5t-190.5 -192t-263.5 -70.5t-264 70.5t-191.5 192t-70.5 264.5zM141 717q0 -175 123.5 -298.5t298.5 -123.5q173 0 296.5 123.5t123.5 298.5q0 173 -123.5 296.5t-296.5 123.5 q-175 0 -298.5 -123.5t-123.5 -296.5zM377 465v506q0 9 6 15.5t12 6.5h211q72 0 124 -51t52 -117q0 -94 -84 -147q-3 -2 -9 -5t-7.5 -4.5t-4.5 -4t-3 -5t1 -6t3 -8.5l88 -170q8 -12 2.5 -22.5t-20.5 -10.5h-46q-19 0 -32 23l-84 170q-4 14 -19 14h-88q-12 0 -12 -10v-174 q0 -9 -6 -16t-15 -7h-51q-6 0 -12 7t-6 16zM467 748q0 -9 12 -9h123q39 0 64.5 25.5t25.5 58.5q0 32 -23.5 57t-66.5 25h-123q-4 0 -8 -3.5t-4 -8.5v-145z" />
<glyph unicode="&#xaf;" d="M307 1339v41q0 17 12 29t29 12h496q17 0 29 -12t12 -29v-41q0 -17 -12 -29t-29 -12h-496q-17 0 -29 12t-12 29z" />
<glyph unicode="&#xb0;" d="M258 1198q0 126 89 214.5t216 88.5q126 0 214.5 -88.5t88.5 -214.5q0 -127 -88.5 -216t-214.5 -89q-127 0 -216 88.5t-89 216.5zM373 1198q0 -75 57.5 -132.5t132.5 -57.5t133 57.5t58 132.5t-58 133t-133 58t-132.5 -58t-57.5 -133z" />
<glyph unicode="&#xb1;" d="M113 836v43q0 17 12 29t29 12h325q21 0 21 20v326q0 17 12 29t29 12h45q17 0 29 -12t12 -29v-326q0 -20 20 -20h326q17 0 29 -12t12 -29v-43q0 -17 -12 -29t-29 -12h-326q-20 0 -20 -21v-328q0 -17 -12 -28.5t-29 -11.5h-45q-17 0 -29 11.5t-12 28.5v328q0 9 -6 15t-15 6 h-325q-17 0 -29 12t-12 29zM119 41v61q0 17 12 29t29 12h807q17 0 29 -12t12 -29v-61q0 -17 -12 -29t-29 -12h-807q-17 0 -29 12t-12 29z" />
<glyph unicode="&#xb2;" d="M356 729v94q0 18 9 27l202 235q66 75 66 154q0 34 -20.5 53t-53.5 19q-35 0 -53.5 -19.5t-18.5 -52.5v-16q0 -8 -5.5 -14.5t-14.5 -6.5h-82q-20 0 -20 21v16q0 82 56 138.5t138 56.5q87 0 140 -58t53 -137q0 -119 -80 -215l-152 -180q-5 -4 -2 -10.5t10 -6.5h220 q20 0 20 -20v-78q0 -20 -20 -20h-371q-8 0 -14.5 6.5t-6.5 13.5z" />
<glyph unicode="&#xb3;" d="M344 911v9q0 7 6.5 13.5t14.5 6.5h88q7 0 13.5 -6t6.5 -14v-9q0 -34 24 -58t64 -24q47 0 69.5 28t22.5 65q0 38 -22 68t-68 30h-16q-21 0 -21 20v84q0 9 6 15t15 6h16q40 0 57 24.5t17 59.5q0 39 -23 58.5t-53 19.5q-28 0 -51 -19.5t-23 -48.5v-16q0 -8 -5.5 -14.5 t-14.5 -6.5h-86q-7 0 -14 7t-7 14v16q0 82 58 138.5t143 56.5q84 0 144.5 -57t60.5 -138q0 -91 -59 -141q-15 -15 -2 -25q75 -65 75 -162q0 -90 -60 -150.5t-159 -60.5q-91 0 -154 61.5t-63 149.5z" />
<glyph unicode="&#xb4;" d="M387 1239l156 223q8 11 12 15.5t15.5 11t25.5 6.5h119q19 0 25.5 -17t-3.5 -26l-221 -229q-25 -25 -61 -25h-39q-19 0 -28 15t-1 26z" />
<glyph unicode="&#xb5;" d="M182 -369v1352q0 17 12 29t29 12h39q17 0 29 -12t12 -29v-647q0 -122 70.5 -179t189.5 -57q110 0 185 65.5t75 160.5v657q0 17 12 29t29 12h39q17 0 29 -12t12 -29v-942q0 -17 -12 -29t-29 -12h-33q-14 0 -28 14q-1 2 -5 6.5t-6 6.5t-5.5 6t-6.5 6t-7 4t-9 3t-10 1 q-22 0 -52 -16.5t-78 -33.5t-114 -17q-54 0 -120.5 25.5t-80.5 25.5q-20 0 -32.5 -14t-12.5 -29v-357q0 -17 -12 -29t-29 -12h-39q-17 0 -29 12t-12 29z" />
<glyph unicode="&#xb6;" d="M166 1085q0 145 101.5 247t246.5 102h406q17 0 29 -12t12 -29v-1557q0 -17 -12 -29t-29 -12h-29q-17 0 -29 12t-12 29v1477q0 20 -21 20h-184q-20 0 -20 -20v-1477q0 -17 -12 -29t-29 -12h-29q-17 0 -29 12t-12 29v881q0 20 -20 20q-134 0 -231 104t-97 244z" />
<glyph unicode="&#xb7;" d="M420 440v205q0 17 12 29t29 12h205q17 0 29 -12t12 -29v-205q0 -17 -12 -29t-29 -12h-205q-17 0 -29 12t-12 29z" />
<glyph unicode="&#xb8;" d="M461 -373l78 248q9 33 39 33h55q19 0 27.5 -11t5.5 -26l-58 -248q-9 -33 -39 -33h-75q-19 0 -28.5 11.5t-4.5 25.5z" />
<glyph unicode="&#xb9;" d="M334 729v78q0 9 6 14.5t14 5.5h148q10 0 10 11v387q0 4 -3 5t-5 -1l-150 -146q-4 -6 -12 -5t-8 12v114q0 23 20 43l152 168q7 10 20 10h95q8 0 14 -5.5t6 -14.5v-567q0 -11 10 -11h121q21 0 21 -20v-78q0 -8 -6 -14t-15 -6h-418q-8 0 -14 6.5t-6 13.5z" />
<glyph unicode="&#xba;" d="M254 1106q-16 80 2 164q19 88 83 134t142 46q79 0 143 -46t83 -134q18 -84 2 -164q-19 -89 -84.5 -138.5t-143.5 -49.5t-143 49.5t-84 138.5zM354 1106q8 -41 42.5 -67.5t84.5 -26.5t84.5 26.5t42.5 67.5q18 90 -4 164q-24 84 -123 84t-123 -84q-22 -74 -4 -164z" />
<glyph unicode="&#xbb;" d="M232 161q-10 18 8 50l174 297q9 15 9 25t-9 24l-174 297q-18 32 -8 50t40 18h39q32 0 51 -31l197 -330q11 -17 11 -28.5t-11 -28.5l-197 -330q-19 -31 -51 -31h-39q-30 0 -40 18zM563.5 161q-9.5 18 7.5 50l174 297q9 15 9 25t-9 24l-174 297q-17 32 -7.5 50t40.5 18h39 q32 0 51 -31l197 -330q11 -17 11 -28.5t-11 -28.5l-197 -330q-19 -31 -51 -31h-39q-31 0 -40.5 18z" />
<glyph unicode="&#xbc;" d="M98 1096v116q0 22 21 43l151 168q7 11 21 11h94q8 0 14.5 -6t6.5 -15v-674q0 -20 -21 -20h-92q-17 0 -17 20v494q0 4 -3 5t-5 -1l-149 -145q-2 -2 -5.5 -3.5t-7 -2t-6 2t-2.5 7.5zM123 18q-12 18 0 39l792 1346q19 31 46 31h26q21 0 33 -19t0 -39l-791 -1345 q-19 -31 -43 -31h-30q-21 0 -33 18zM545 143v76q0 4 2 7.5t6.5 10t7.5 11.5l270 454q9 15 21 15h86q8 0 14 -6t6 -15v-450q0 -10 11 -10h41q8 0 14 -6t6 -15v-72q0 -7 -6 -13.5t-14 -6.5h-41q-11 0 -11 -10v-93q0 -9 -6 -14.5t-14 -5.5h-76q-20 0 -20 20v93q0 10 -11 10 h-266q-7 0 -13.5 6.5t-6.5 13.5zM690 244q-4 -8 4 -8h137q11 0 11 10v246q0 3 -2.5 4t-5 0.5t-3.5 -2.5z" />
<glyph unicode="&#xbd;" d="M88 1096v116q0 22 21 43l151 168q7 11 21 11h94q8 0 14 -6t6 -15v-674q0 -20 -20 -20h-92q-17 0 -17 20v494q0 4 -3 5t-5 -1l-149 -145q-2 -2 -5.5 -3.5t-7 -2t-6 2t-2.5 7.5zM113 17.5q-11 17.5 0 39.5l792 1346q19 31 45 31h27q21 0 33 -19t0 -39l-791 -1345 q-19 -31 -43 -31h-31q-21 0 -32 17.5zM659 20v95q0 17 9 26l202 236q66 75 66 153q0 34 -20.5 53t-53.5 19q-34 0 -52.5 -19.5t-18.5 -52.5v-16q0 -8 -6 -14t-15 -6h-82q-20 0 -20 20v16q0 82 56 138.5t138 56.5q87 0 140 -58t53 -137q0 -119 -80 -215l-152 -180 q-5 -5 -2 -10.5t10 -5.5h220q20 0 20 -21v-78q0 -20 -20 -20h-371q-8 0 -14.5 6.5t-6.5 13.5z" />
<glyph unicode="&#xbe;" d="M68 924v8q0 8 6 14t14 6h88q8 0 14.5 -6.5t6.5 -13.5v-8q0 -34 24 -58t64 -24q47 0 69.5 27.5t22.5 64.5q0 38 -22 68t-68 30h-17q-20 0 -20 21v84q0 20 20 20h17q73 0 73 84q0 39 -22.5 58.5t-52.5 19.5q-28 0 -51 -19.5t-23 -48.5v-16q0 -8 -6 -14.5t-15 -6.5h-86 q-7 0 -13.5 6.5t-6.5 14.5v16q0 82 58 138.5t143 56.5q84 0 144 -57t60 -138q0 -91 -59 -141q-15 -15 -2 -25q76 -66 76 -161q0 -90 -60 -150.5t-159 -60.5q-91 0 -154 61.5t-63 149.5zM133 18q-12 18 0 39l793 1346q19 31 45 31h26q21 0 33 -19t0 -39l-790 -1345 q-19 -31 -43 -31h-31q-21 0 -33 18zM545 143v76q0 4 2 7.5t6.5 10t7.5 11.5l270 454q9 15 21 15h86q8 0 14 -6t6 -15v-450q0 -10 11 -10h41q8 0 14 -6t6 -15v-72q0 -7 -6 -13.5t-14 -6.5h-41q-11 0 -11 -10v-93q0 -9 -6 -14.5t-14 -5.5h-76q-20 0 -20 20v93q0 10 -11 10 h-266q-7 0 -13.5 6.5t-6.5 13.5zM690 244q-4 -8 4 -8h137q11 0 11 10v246q0 3 -2.5 4t-5 0.5t-3.5 -2.5z" />
<glyph unicode="&#xbf;" d="M193 -55q0 27 4.5 53.5t9.5 46t18.5 43t20.5 36t26.5 35.5t25.5 30t29 31t27 28q7 7 41.5 39t59.5 57t48 61t23 64v145q0 17 12 29t29 12h41q17 0 29 -12t12 -29q0 -139 -9 -193t-28 -77q-31 -36 -61.5 -66t-59.5 -55.5t-42 -38.5q-2 -2 -23 -22.5t-30 -30t-27.5 -33.5 t-27.5 -43.5t-16.5 -49t-7.5 -60.5q0 -104 68 -168t182 -64q103 0 173.5 79.5t70.5 193.5v14q0 17 12 29t29 12h41q17 0 29 -12t12 -29v-14q0 -165 -105.5 -280.5t-261.5 -115.5q-165 0 -269.5 98t-104.5 257zM487 883v129q0 13 9.5 22.5t23.5 9.5h127q14 0 23.5 -9.5 t9.5 -22.5v-129q0 -12 -10 -22.5t-23 -10.5h-127q-13 0 -23 10.5t-10 22.5z" />
<glyph unicode="&#xc0;" d="M82 41l391 1362q3 13 14 22t25 9h102q14 0 25 -9t14 -22l391 -1362q3 -15 -7 -28t-33 -13h-52q-14 0 -25 9t-14 22l-100 346q-10 29 -39 29h-422q-29 0 -39 -29l-100 -346q-3 -13 -14 -22t-25 -9h-51q-23 0 -33.5 13t-7.5 28zM283.5 1816q6.5 17 25.5 17h119 q14 0 25.5 -6.5t15.5 -11t12 -15.5l156 -223q8 -11 -1 -26t-28 -15h-39q-36 0 -61 25l-221 229q-10 9 -3.5 26zM367 555q-6 -23 16 -23h360q23 0 17 23l-187 696q-3 13 -8 13h-4q-5 0 -8 -13z" />
<glyph unicode="&#xc1;" d="M82 41l391 1362q3 13 14 22t25 9h102q14 0 25 -9t14 -22l391 -1362q3 -15 -7 -28t-33 -13h-52q-14 0 -25 9t-14 22l-100 346q-10 29 -39 29h-422q-29 0 -39 -29l-100 -346q-3 -13 -14 -22t-25 -9h-51q-23 0 -33.5 13t-7.5 28zM367 555q-6 -23 16 -23h360q23 0 17 23 l-187 696q-3 13 -8 13h-4q-5 0 -8 -13zM469 1577l156 223q8 11 12 15.5t15.5 11t25.5 6.5h119q19 0 25.5 -17t-3.5 -26l-221 -229q-25 -25 -61 -25h-39q-19 0 -28 15t-1 26z" />
<glyph unicode="&#xc2;" d="M82 41l391 1362q3 13 14 22t25 9h102q14 0 25 -9t14 -22l391 -1362q3 -15 -7 -28t-33 -13h-52q-14 0 -25 9t-14 22l-100 346q-10 29 -39 29h-422q-29 0 -39 -29l-100 -346q-3 -13 -14 -22t-25 -9h-51q-23 0 -33.5 13t-7.5 28zM236.5 1555q-6.5 17 3.5 26l241 229 q25 25 62 25h45q34 0 59 -25l242 -229q10 -9 3 -26t-26 -17h-88q-30 0 -63 33l-137 133q-14 14 -29 0l-135 -133q-33 -33 -64 -33h-88q-19 0 -25.5 17zM367 555q-6 -23 16 -23h360q23 0 17 23l-187 696q-3 13 -8 13h-4q-5 0 -8 -13z" />
<glyph unicode="&#xc3;" d="M82 41l391 1362q3 13 14 22t25 9h102q14 0 25 -9t14 -22l391 -1362q3 -15 -7 -28t-33 -13h-52q-14 0 -25 9t-14 22l-100 346q-10 29 -39 29h-422q-29 0 -39 -29l-100 -346q-3 -13 -14 -22t-25 -9h-51q-23 0 -33.5 13t-7.5 28zM274 1602v49q0 41 43 72.5t103 31.5 q64 0 140 -25.5t147 -25.5q60 0 94 43q12 16 31.5 7.5t19.5 -36.5v-49q0 -41 -42.5 -72.5t-102.5 -31.5q-65 0 -140.5 25.5t-146.5 25.5q-57 0 -94 -43q-12 -15 -32 -6.5t-20 35.5zM367 555q-6 -23 16 -23h360q23 0 17 23l-187 696q-3 13 -8 13h-4q-5 0 -8 -13z" />
<glyph unicode="&#xc4;" d="M82 41l391 1362q3 13 14 22t25 9h102q14 0 25 -9t14 -22l391 -1362q3 -15 -7 -28t-33 -13h-52q-14 0 -25 9t-14 22l-100 346q-10 29 -39 29h-422q-29 0 -39 -29l-100 -346q-3 -13 -14 -22t-25 -9h-51q-23 0 -33.5 13t-7.5 28zM301 1593v109q0 12 10 22.5t23 10.5h106 q13 0 23 -10.5t10 -22.5v-109q0 -13 -9.5 -22.5t-23.5 -9.5h-106q-14 0 -23.5 9.5t-9.5 22.5zM367 555q-6 -23 16 -23h360q23 0 17 23l-187 696q-3 13 -8 13h-4q-5 0 -8 -13zM651 1593v109q0 12 10 22.5t23 10.5h107q13 0 22.5 -10.5t9.5 -22.5v-109q0 -13 -9.5 -22.5 t-22.5 -9.5h-107q-14 0 -23.5 9.5t-9.5 22.5z" />
<glyph unicode="&#xc5;" d="M82 41l391 1362q3 13 14 22t25 9h102q14 0 25 -9t14 -22l391 -1362q3 -15 -7 -28t-33 -13h-52q-14 0 -25 9t-14 22l-100 346q-10 29 -39 29h-422q-29 0 -39 -29l-100 -346q-3 -13 -14 -22t-25 -9h-51q-23 0 -33.5 13t-7.5 28zM338 1720q0 94 65.5 160t159.5 66t159.5 -66 t65.5 -160t-65.5 -159.5t-159.5 -65.5t-159.5 65.5t-65.5 159.5zM367 555q-6 -23 16 -23h360q23 0 17 23l-187 696q-3 13 -8 13h-4q-5 0 -8 -13zM449 1720q0 -47 33.5 -80.5t80.5 -33.5q49 0 81 33t32 81q0 50 -32 81.5t-81 31.5q-48 0 -81 -32t-33 -81z" />
<glyph unicode="&#xc6;" d="M51 41l391 1362q3 13 14 22t25 9h570q17 0 29 -12t12 -29v-50q0 -17 -12 -28.5t-29 -11.5h-295q-9 0 -15 -6t-6 -15v-465q0 -20 21 -20h272q17 0 29 -12t12 -29v-47q0 -17 -12 -29t-29 -12h-272q-9 0 -15 -6t-6 -15v-495q0 -9 6 -15t15 -6h299q17 0 29 -12t12 -29v-49 q0 -17 -12 -29t-29 -12h-410q-17 0 -29 12t-12 29v344q0 21 -20 21h-262q-29 0 -39 -29l-101 -346q-3 -13 -14 -22t-25 -9h-51q-23 0 -33.5 13t-7.5 28zM336 555q-6 -23 16 -23h232q20 0 20 21v690q0 21 -20 21h-43q-16 0 -21 -21z" />
<glyph unicode="&#xc7;" d="M98 717.5q0 183.5 17 306.5q12 85 47 160.5t91 135.5t138 95t180 35q99 0 185 -35t145 -93.5t93 -136t34 -161.5v-8q0 -17 -12 -29t-29 -12h-55q-17 0 -29 12t-12 29v8q0 119 -89.5 207t-230.5 88q-137 0 -218.5 -85.5t-100.5 -209.5q-19 -126 -19 -307t19 -307 q5 -39 17.5 -77t38 -78t60 -70.5t87.5 -50t116 -19.5q79 0 142.5 28.5t101 74t57 95t19.5 97.5v8q0 17 12 29t29 12h55q17 0 29 -12t12 -29v-8q0 -129 -63.5 -227.5t-166.5 -148.5t-227 -50q-185 0 -307.5 114t-148.5 312q-17 124 -17 307.5zM440 -373l78 248q9 33 39 33h55 q19 0 27.5 -11t5.5 -26l-57 -248q-9 -33 -39 -33h-76q-19 0 -28.5 11.5t-4.5 25.5z" />
<glyph unicode="&#xc8;" d="M199 41v1352q0 17 12 29t29 12h682q17 0 29 -12t12 -29v-50q0 -17 -12 -28.5t-29 -11.5h-572q-20 0 -20 -21v-465q0 -20 20 -20h549q17 0 29 -12t12 -29v-47q0 -17 -12 -29t-29 -12h-549q-20 0 -20 -21v-495q0 -21 20 -21h576q17 0 29 -12t12 -29v-49q0 -17 -12 -29 t-29 -12h-686q-17 0 -29 12t-12 29zM304 1816q7 17 26 17h119q14 0 25.5 -6.5t15.5 -11t12 -15.5l155 -223q8 -11 -0.5 -26t-27.5 -15h-39q-37 0 -62 25l-221 229q-10 9 -3 26z" />
<glyph unicode="&#xc9;" d="M199 41v1352q0 17 12 29t29 12h682q17 0 29 -12t12 -29v-50q0 -17 -12 -28.5t-29 -11.5h-572q-20 0 -20 -21v-465q0 -20 20 -20h549q17 0 29 -12t12 -29v-47q0 -17 -12 -29t-29 -12h-549q-20 0 -20 -21v-495q0 -21 20 -21h576q17 0 29 -12t12 -29v-49q0 -17 -12 -29 t-29 -12h-686q-17 0 -29 12t-12 29zM469 1577l156 223q8 11 12 15.5t15.5 11t25.5 6.5h119q19 0 25.5 -17t-3.5 -26l-221 -229q-25 -25 -61 -25h-39q-19 0 -28 15t-1 26z" />
<glyph unicode="&#xca;" d="M199 41v1352q0 17 12 29t29 12h682q17 0 29 -12t12 -29v-50q0 -17 -12 -28.5t-29 -11.5h-572q-20 0 -20 -21v-465q0 -20 20 -20h549q17 0 29 -12t12 -29v-47q0 -17 -12 -29t-29 -12h-549q-20 0 -20 -21v-495q0 -21 20 -21h576q17 0 29 -12t12 -29v-49q0 -17 -12 -29 t-29 -12h-686q-17 0 -29 12t-12 29zM257 1555q-7 17 3 26l242 229q25 25 61 25h45q35 0 60 -25l241 -229q10 -9 3.5 -26t-25.5 -17h-88q-31 0 -64 33l-137 133q-14 14 -29 0l-135 -133q-33 -33 -63 -33h-88q-19 0 -26 17z" />
<glyph unicode="&#xcb;" d="M199 41v1352q0 17 12 29t29 12h682q17 0 29 -12t12 -29v-50q0 -17 -12 -28.5t-29 -11.5h-572q-20 0 -20 -21v-465q0 -20 20 -20h549q17 0 29 -12t12 -29v-47q0 -17 -12 -29t-29 -12h-549q-20 0 -20 -21v-495q0 -21 20 -21h576q17 0 29 -12t12 -29v-49q0 -17 -12 -29 t-29 -12h-686q-17 0 -29 12t-12 29zM322 1593v109q0 12 9.5 22.5t22.5 10.5h107q13 0 23 -10.5t10 -22.5v-109q0 -13 -9.5 -22.5t-23.5 -9.5h-107q-14 0 -23 9.5t-9 22.5zM672 1593v109q0 12 10 22.5t23 10.5h106q13 0 23 -10.5t10 -22.5v-109q0 -13 -9.5 -22.5t-23.5 -9.5 h-106q-14 0 -23.5 9.5t-9.5 22.5z" />
<glyph unicode="&#xcc;" d="M158 41v43q0 17 12 29t29 12h276q21 0 21 20v1145q0 9 -6 15t-15 6h-256q-17 0 -29 12t-12 29v41q0 17 12 29t29 12h686q17 0 29 -12t12 -29v-41q0 -17 -12 -29t-29 -12h-256q-20 0 -20 -21v-1145q0 -20 20 -20h277q17 0 29 -12t12 -29v-43q0 -17 -12 -29t-29 -12h-727 q-17 0 -29 12t-12 29zM304 1816q7 17 26 17h119q14 0 25.5 -6.5t15.5 -11t12 -15.5l155 -223q8 -11 -0.5 -26t-27.5 -15h-39q-37 0 -62 25l-221 229q-10 9 -3 26z" />
<glyph unicode="&#xcd;" d="M158 41v43q0 17 12 29t29 12h276q21 0 21 20v1145q0 9 -6 15t-15 6h-256q-17 0 -29 12t-12 29v41q0 17 12 29t29 12h686q17 0 29 -12t12 -29v-41q0 -17 -12 -29t-29 -12h-256q-20 0 -20 -21v-1145q0 -20 20 -20h277q17 0 29 -12t12 -29v-43q0 -17 -12 -29t-29 -12h-727 q-17 0 -29 12t-12 29zM469 1577l156 223q8 11 12 15.5t15.5 11t25.5 6.5h119q19 0 25.5 -17t-3.5 -26l-221 -229q-25 -25 -61 -25h-39q-19 0 -28 15t-1 26z" />
<glyph unicode="&#xce;" d="M158 41v43q0 17 12 29t29 12h276q21 0 21 20v1145q0 9 -6 15t-15 6h-256q-17 0 -29 12t-12 29v41q0 17 12 29t29 12h686q17 0 29 -12t12 -29v-41q0 -17 -12 -29t-29 -12h-256q-20 0 -20 -21v-1145q0 -20 20 -20h277q17 0 29 -12t12 -29v-43q0 -17 -12 -29t-29 -12h-727 q-17 0 -29 12t-12 29zM236.5 1555q-6.5 17 3.5 26l241 229q25 25 62 25h45q34 0 59 -25l242 -229q10 -9 3 -26t-26 -17h-88q-30 0 -63 33l-137 133q-14 14 -29 0l-135 -133q-33 -33 -64 -33h-88q-19 0 -25.5 17z" />
<glyph unicode="&#xcf;" d="M158 41v43q0 17 12 29t29 12h276q21 0 21 20v1145q0 9 -6 15t-15 6h-256q-17 0 -29 12t-12 29v41q0 17 12 29t29 12h686q17 0 29 -12t12 -29v-41q0 -17 -12 -29t-29 -12h-256q-20 0 -20 -21v-1145q0 -20 20 -20h277q17 0 29 -12t12 -29v-43q0 -17 -12 -29t-29 -12h-727 q-17 0 -29 12t-12 29zM301 1593v109q0 12 10 22.5t23 10.5h106q13 0 23 -10.5t10 -22.5v-109q0 -13 -9.5 -22.5t-23.5 -9.5h-106q-14 0 -23.5 9.5t-9.5 22.5zM651 1593v109q0 12 10 22.5t23 10.5h107q13 0 22.5 -10.5t9.5 -22.5v-109q0 -13 -9.5 -22.5t-22.5 -9.5h-107 q-14 0 -23.5 9.5t-9.5 22.5z" />
<glyph unicode="&#xd0;" d="M35 709v47q0 17 12 29t29 12h45q20 0 20 20v576q0 17 12 29t29 12h369q193 0 312.5 -116.5t144.5 -293.5q17 -123 17 -306t-17 -308q-26 -196 -148 -303t-309 -107h-369q-17 0 -29 12t-12 29v606q0 21 -20 21h-45q-17 0 -29 12t-12 29zM272 152q0 -9 6 -15t15 -6h258 q79 0 140 26t97 69.5t55.5 89t26.5 94.5q19 126 19 307t-19 307q-19 122 -100 200.5t-219 78.5h-258q-9 0 -15 -6t-6 -15v-465q0 -20 21 -20h205q17 0 29 -12t12 -29v-47q0 -17 -12 -29t-29 -12h-205q-9 0 -15 -6t-6 -15v-495z" />
<glyph unicode="&#xd1;" d="M154 41v1352q0 17 12 29t29 12h106q17 0 25.5 -6.5t17.5 -28.5l490 -1166q3 -6 9.5 -4t6.5 9v1155q0 17 12 29t29 12h41q17 0 29 -12t12 -29v-1352q0 -17 -12 -29t-29 -12h-107q-17 0 -25.5 6.5t-17.5 28.5l-489 1175q-2 4 -6 5t-7.5 -1.5t-3.5 -7.5v-1165 q0 -17 -11.5 -29t-28.5 -12h-41q-17 0 -29 12t-12 29zM274 1602v49q0 41 43 72.5t103 31.5q64 0 140 -25.5t147 -25.5q60 0 94 43q12 16 31.5 7.5t19.5 -36.5v-49q0 -41 -42.5 -72.5t-102.5 -31.5q-65 0 -140.5 25.5t-146.5 25.5q-57 0 -94 -43q-12 -15 -32 -6.5t-20 35.5z " />
<glyph unicode="&#xd2;" d="M89 717.5q0 183.5 17 306.5q16 115 71 209.5t155.5 155.5t230.5 61t230.5 -61t155.5 -155.5t71 -209.5q17 -123 17 -306t-17 -308q-26 -198 -149 -312t-308 -114t-308 114t-149 312q-17 124 -17 307.5zM225 717q0 -181 19 -307q5 -39 17.5 -77t38 -78t60 -70.5t87.5 -50 t116 -19.5t116 19.5t87.5 50t60 70.5t38.5 78t18 77q19 126 19 307t-19 307q-19 124 -101 209.5t-219 85.5t-218.5 -85.5t-100.5 -209.5q-19 -126 -19 -307zM304 1816q7 17 26 17h119q14 0 25.5 -6.5t15.5 -11t12 -15.5l155 -223q8 -11 -0.5 -26t-27.5 -15h-39q-37 0 -62 25 l-221 229q-10 9 -3 26z" />
<glyph unicode="&#xd3;" d="M89 717.5q0 183.5 17 306.5q16 115 71 209.5t155.5 155.5t230.5 61t230.5 -61t155.5 -155.5t71 -209.5q17 -123 17 -306t-17 -308q-26 -198 -149 -312t-308 -114t-308 114t-149 312q-17 124 -17 307.5zM225 717q0 -181 19 -307q5 -39 17.5 -77t38 -78t60 -70.5t87.5 -50 t116 -19.5t116 19.5t87.5 50t60 70.5t38.5 78t18 77q19 126 19 307t-19 307q-19 124 -101 209.5t-219 85.5t-218.5 -85.5t-100.5 -209.5q-19 -126 -19 -307zM489 1577l156 223q8 11 12 15.5t15.5 11t25.5 6.5h119q19 0 26 -17t-3 -26l-222 -229q-25 -25 -61 -25h-39 q-19 0 -28 15t-1 26z" />
<glyph unicode="&#xd4;" d="M89 717.5q0 183.5 17 306.5q16 115 71 209.5t155.5 155.5t230.5 61t230.5 -61t155.5 -155.5t71 -209.5q17 -123 17 -306t-17 -308q-26 -198 -149 -312t-308 -114t-308 114t-149 312q-17 124 -17 307.5zM225 717q0 -181 19 -307q5 -39 17.5 -77t38 -78t60 -70.5t87.5 -50 t116 -19.5t116 19.5t87.5 50t60 70.5t38.5 78t18 77q19 126 19 307t-19 307q-19 124 -101 209.5t-219 85.5t-218.5 -85.5t-100.5 -209.5q-19 -126 -19 -307zM236.5 1555q-6.5 17 3.5 26l241 229q25 25 62 25h45q34 0 59 -25l242 -229q10 -9 3 -26t-26 -17h-88q-30 0 -63 33 l-137 133q-14 14 -29 0l-135 -133q-33 -33 -64 -33h-88q-19 0 -25.5 17z" />
<glyph unicode="&#xd5;" d="M89 717.5q0 183.5 17 306.5q16 115 71 209.5t155.5 155.5t230.5 61t230.5 -61t155.5 -155.5t71 -209.5q17 -123 17 -306t-17 -308q-26 -198 -149 -312t-308 -114t-308 114t-149 312q-17 124 -17 307.5zM225 717q0 -181 19 -307q5 -39 17.5 -77t38 -78t60 -70.5t87.5 -50 t116 -19.5t116 19.5t87.5 50t60 70.5t38.5 78t18 77q19 126 19 307t-19 307q-19 124 -101 209.5t-219 85.5t-218.5 -85.5t-100.5 -209.5q-19 -126 -19 -307zM274 1602v49q0 41 43 72.5t103 31.5q64 0 140 -25.5t147 -25.5q60 0 94 43q12 16 31.5 7.5t19.5 -36.5v-49 q0 -41 -42.5 -72.5t-102.5 -31.5q-65 0 -140.5 25.5t-146.5 25.5q-57 0 -94 -43q-12 -15 -32 -6.5t-20 35.5z" />
<glyph unicode="&#xd6;" d="M89 717.5q0 183.5 17 306.5q16 115 71 209.5t155.5 155.5t230.5 61t230.5 -61t155.5 -155.5t71 -209.5q17 -123 17 -306t-17 -308q-26 -198 -149 -312t-308 -114t-308 114t-149 312q-17 124 -17 307.5zM225 717q0 -181 19 -307q5 -39 17.5 -77t38 -78t60 -70.5t87.5 -50 t116 -19.5t116 19.5t87.5 50t60 70.5t38.5 78t18 77q19 126 19 307t-19 307q-19 124 -101 209.5t-219 85.5t-218.5 -85.5t-100.5 -209.5q-19 -126 -19 -307zM301 1593v109q0 12 10 22.5t23 10.5h106q13 0 23 -10.5t10 -22.5v-109q0 -13 -9.5 -22.5t-23.5 -9.5h-106 q-14 0 -23.5 9.5t-9.5 22.5zM651 1593v109q0 12 10 22.5t23 10.5h107q13 0 22.5 -10.5t9.5 -22.5v-109q0 -13 -9.5 -22.5t-22.5 -9.5h-107q-14 0 -23.5 9.5t-9.5 22.5z" />
<glyph unicode="&#xd7;" d="M217 785.5q0 17.5 12 29.5l31 31q12 12 29 12t28 -12l232 -230q15 -14 29 0l231 230q11 12 28 12t29 -12l31 -31q11 -11 11 -28t-11 -29l-231 -230q-14 -14 0 -28l231 -234q12 -10 12 -27.5t-12 -29.5l-31 -31q-12 -12 -29.5 -12t-27.5 12l-234 232q-14 14 -28 0 l-230 -232q-12 -10 -29.5 -10t-27.5 10l-31 31q-12 12 -11.5 28.5t11.5 28.5l230 232q14 14 0 28l-230 232q-12 10 -12 27.5z" />
<glyph unicode="&#xd8;" d="M83.5 713.5q2.5 157.5 20.5 310.5q16 115 71 209.5t155.5 155.5t230.5 61q151 0 268 -86q15 -7 21 4l18 35q16 31 39 31h62q20 0 28.5 -13t-0.5 -32l-63 -117q-2 -5 16.5 -52t41 -107t26.5 -89q17 -123 17 -306t-17 -308q-26 -198 -149 -312t-308 -114q-128 0 -223 53 q-15 7 -45 29q-7 7 -14 -7l-17 -28q-19 -31 -43 -31h-59q-21 0 -30 13.5t1 35.5l57 107q4 9 -2 22q-52 76 -78.5 227t-24 308.5zM223.5 649q4.5 -228 38.5 -325q2 -6 7 -7.5t12 7.5l489 899q12 19 -25.5 42.5t-91.5 38.5t-92 15q-137 0 -218.5 -85.5t-100.5 -209.5 q-23 -147 -18.5 -375zM354 201q-11 -17 26 -38t90.5 -34.5t90.5 -13.5q63 0 116 19.5t87.5 50t60 70.5t38.5 78t18 77q19 126 19 307t-19 307q-6 28 -23 84q-6 12 -14 -2z" />
<glyph unicode="&#xd9;" d="M123 424v969q0 17 12 29t29 12h49q17 0 29 -12t12 -29v-969q0 -125 90 -217t219 -92t219 92t90 217v969q0 17 12 29t29 12h50q17 0 29 -12t12 -29v-969q0 -183 -129 -311.5t-312 -128.5t-311.5 128.5t-128.5 311.5zM304 1816q7 17 26 17h119q14 0 25.5 -6.5t15.5 -11 t12 -15.5l155 -223q8 -11 -0.5 -26t-27.5 -15h-39q-37 0 -62 25l-221 229q-10 9 -3 26z" />
<glyph unicode="&#xda;" d="M123 424v969q0 17 12 29t29 12h49q17 0 29 -12t12 -29v-969q0 -125 90 -217t219 -92t219 92t90 217v969q0 17 12 29t29 12h50q17 0 29 -12t12 -29v-969q0 -183 -129 -311.5t-312 -128.5t-311.5 128.5t-128.5 311.5zM469 1577l156 223q8 11 12 15.5t15.5 11t25.5 6.5h119 q19 0 25.5 -17t-3.5 -26l-221 -229q-25 -25 -61 -25h-39q-19 0 -28 15t-1 26z" />
<glyph unicode="&#xdb;" d="M123 424v969q0 17 12 29t29 12h49q17 0 29 -12t12 -29v-969q0 -125 90 -217t219 -92t219 92t90 217v969q0 17 12 29t29 12h50q17 0 29 -12t12 -29v-969q0 -183 -129 -311.5t-312 -128.5t-311.5 128.5t-128.5 311.5zM236.5 1555q-6.5 17 3.5 26l241 229q25 25 62 25h45 q34 0 59 -25l242 -229q10 -9 3 -26t-26 -17h-88q-30 0 -63 33l-137 133q-14 14 -29 0l-135 -133q-33 -33 -64 -33h-88q-19 0 -25.5 17z" />
<glyph unicode="&#xdc;" d="M123 424v969q0 17 12 29t29 12h49q17 0 29 -12t12 -29v-969q0 -125 90 -217t219 -92t219 92t90 217v969q0 17 12 29t29 12h50q17 0 29 -12t12 -29v-969q0 -183 -129 -311.5t-312 -128.5t-311.5 128.5t-128.5 311.5zM301 1593v109q0 12 10 22.5t23 10.5h106q13 0 23 -10.5 t10 -22.5v-109q0 -13 -9.5 -22.5t-23.5 -9.5h-106q-14 0 -23.5 9.5t-9.5 22.5zM651 1593v109q0 12 10 22.5t23 10.5h107q13 0 22.5 -10.5t9.5 -22.5v-109q0 -13 -9.5 -22.5t-22.5 -9.5h-107q-14 0 -23.5 9.5t-9.5 22.5z" />
<glyph unicode="&#xdd;" d="M135 1376q-9 23 1.5 40.5t31.5 17.5h65q28 0 39 -31l285 -731q3 -8 8 -8t8 8l281 731q11 31 39 31h65q21 0 31.5 -17.5t1.5 -40.5l-358 -882v-453q0 -17 -12 -29t-29 -12h-53q-17 0 -29 12t-12 29v451zM469 1577l156 223q8 11 12 15.5t15.5 11t25.5 6.5h119 q19 0 25.5 -17t-3.5 -26l-221 -229q-25 -25 -61 -25h-39q-19 0 -28 15t-1 26z" />
<glyph unicode="&#xde;" d="M154 41v1352q0 17 12 29t29 12h49q17 0 29 -12t12 -29v-164q0 -21 20 -21h238q179 0 304.5 -126t125.5 -304v-102q0 -178 -125.5 -304t-304.5 -126h-238q-20 0 -20 -21v-184q0 -17 -12 -29t-29 -12h-49q-17 0 -29 12t-12 29zM285 397q0 -20 20 -20h238q123 0 211 88 t88 211v102q0 123 -88 211t-211 88h-238q-20 0 -20 -20v-660z" />
<glyph unicode="&#xdf;" d="M170 41v1018q0 174 104.5 284.5t272.5 110.5q165 0 272 -114t107 -281q0 -162 -119 -281q-27 -27 -2 -49q151 -131 151 -323q0 -177 -115.5 -291.5t-293.5 -114.5h-41q-17 0 -29 12t-12 29v39q0 17 12 29t29 12h41q120 0 204.5 84t84.5 201q0 116 -77.5 199t-207.5 83 h-14q-17 0 -29 12t-12 29v41q0 17 12 29t29 12h14q107 0 180.5 70.5t73.5 177.5q0 126 -71.5 200t-186.5 74q-113 0 -182.5 -79t-69.5 -195v-1018q0 -17 -12 -29t-29 -12h-43q-17 0 -29 12t-12 29z" />
<glyph unicode="&#xe0;" d="M176 307q0 131 90.5 215t247.5 84h293q20 0 20 21v80q0 99 -69.5 162t-177.5 63q-96 0 -168 -50.5t-72 -129.5q0 -16 -9 -24.5t-17 -9.5t-21 -1h-29q-41 0 -41 41q0 91 54 157.5t133.5 97.5t169.5 31q104 0 185 -35t132 -113.5t51 -190.5v-664q0 -17 -12 -29t-29 -12h-18 q-21 0 -29 14l-6.5 13t-7.5 14.5t-10.5 10.5t-16.5 5q-11 0 -37 -12t-54.5 -26.5t-77.5 -26.5t-101 -12q-180 0 -276.5 94t-96.5 233zM297 309q0 -104 69.5 -159.5t172.5 -55.5q142 0 218.5 66t76.5 190v123q0 9 -6 15t-15 6h-299q-91 0 -154 -49t-63 -136zM345 1478 q7 17 26 17h118q30 0 54 -33l155 -223q8 -11 -0.5 -26t-27.5 -15h-39q-37 0 -62 25l-221 229q-10 9 -3 26z" />
<glyph unicode="&#xe1;" d="M176 307q0 131 90.5 215t247.5 84h293q20 0 20 21v80q0 99 -69.5 162t-177.5 63q-96 0 -168 -50.5t-72 -129.5q0 -16 -9 -24.5t-17 -9.5t-21 -1h-29q-41 0 -41 41q0 91 54 157.5t133.5 97.5t169.5 31q104 0 185 -35t132 -113.5t51 -190.5v-664q0 -17 -12 -29t-29 -12h-18 q-21 0 -29 14l-6.5 13t-7.5 14.5t-10.5 10.5t-16.5 5q-11 0 -37 -12t-54.5 -26.5t-77.5 -26.5t-101 -12q-180 0 -276.5 94t-96.5 233zM297 309q0 -104 69.5 -159.5t172.5 -55.5q142 0 218.5 66t76.5 190v123q0 9 -6 15t-15 6h-299q-91 0 -154 -49t-63 -136zM510 1239 l156 223q8 11 12 15.5t15.5 11t25.5 6.5h119q19 0 25.5 -17t-3.5 -26l-221 -229q-25 -25 -61 -25h-39q-19 0 -28 15t-1 26z" />
<glyph unicode="&#xe2;" d="M176 307q0 131 90.5 215t247.5 84h293q20 0 20 21v80q0 99 -69.5 162t-177.5 63q-96 0 -168 -50.5t-72 -129.5q0 -16 -9 -24.5t-17 -9.5t-21 -1h-29q-41 0 -41 41q0 91 54 157.5t133.5 97.5t169.5 31q104 0 185 -35t132 -113.5t51 -190.5v-664q0 -17 -12 -29t-29 -12h-18 q-21 0 -29 14l-6.5 13t-7.5 14.5t-10.5 10.5t-16.5 5q-11 0 -37 -12t-54.5 -26.5t-77.5 -26.5t-101 -12q-180 0 -276.5 94t-96.5 233zM267 1215q-7 17 3 26l242 229q25 25 61 25h45q35 0 60 -25l242 -229q10 -9 3 -26t-26 -17h-88q-31 0 -64 33l-137 133q-14 14 -28 0 l-136 -133q-33 -33 -63 -33h-88q-19 0 -26 17zM297 309q0 -104 69.5 -159.5t172.5 -55.5q142 0 218.5 66t76.5 190v123q0 9 -6 15t-15 6h-299q-91 0 -154 -49t-63 -136z" />
<glyph unicode="&#xe3;" d="M176 307q0 131 90.5 215t247.5 84h293q20 0 20 21v80q0 99 -69.5 162t-177.5 63q-96 0 -168 -50.5t-72 -129.5q0 -16 -9 -24.5t-17 -9.5t-21 -1h-29q-41 0 -41 41q0 91 54 157.5t133.5 97.5t169.5 31q104 0 185 -35t132 -113.5t51 -190.5v-664q0 -17 -12 -29t-29 -12h-18 q-21 0 -29 14l-6.5 13t-7.5 14.5t-10.5 10.5t-16.5 5q-11 0 -37 -12t-54.5 -26.5t-77.5 -26.5t-101 -12q-180 0 -276.5 94t-96.5 233zM297 309q0 -104 69.5 -159.5t172.5 -55.5q142 0 218.5 66t76.5 190v123q0 9 -6 15t-15 6h-299q-91 0 -154 -49t-63 -136zM305 1282v49 q0 41 43 73t103 32q65 0 140 -26t146 -26q60 0 94 43q12 17 32 8.5t20 -36.5v-49q0 -41 -43 -73t-103 -32q-65 0 -140 25.5t-146 25.5q-58 0 -95 -43q-12 -15 -31.5 -6.5t-19.5 35.5z" />
<glyph unicode="&#xe4;" d="M176 307q0 131 90.5 215t247.5 84h293q20 0 20 21v80q0 99 -69.5 162t-177.5 63q-96 0 -168 -50.5t-72 -129.5q0 -16 -9 -24.5t-17 -9.5t-21 -1h-29q-41 0 -41 41q0 91 54 157.5t133.5 97.5t169.5 31q104 0 185 -35t132 -113.5t51 -190.5v-664q0 -17 -12 -29t-29 -12h-18 q-21 0 -29 14l-6.5 13t-7.5 14.5t-10.5 10.5t-16.5 5q-11 0 -37 -12t-54.5 -26.5t-77.5 -26.5t-101 -12q-180 0 -276.5 94t-96.5 233zM297 309q0 -104 69.5 -159.5t172.5 -55.5q142 0 218.5 66t76.5 190v123q0 9 -6 15t-15 6h-299q-91 0 -154 -49t-63 -136zM332 1307v108 q0 12 10 22.5t23 10.5h106q13 0 23 -10.5t10 -22.5v-108q0 -13 -10 -23t-23 -10h-106q-13 0 -23 10t-10 23zM682 1307v108q0 12 10 22.5t23 10.5h106q13 0 23 -10.5t10 -22.5v-108q0 -13 -10 -23t-23 -10h-106q-13 0 -23 10t-10 23z" />
<glyph unicode="&#xe5;" d="M176 307q0 131 90.5 215t247.5 84h293q20 0 20 21v80q0 99 -69.5 162t-177.5 63q-96 0 -168 -50.5t-72 -129.5q0 -16 -9 -24.5t-17 -9.5t-21 -1h-29q-41 0 -41 41q0 91 54 157.5t133.5 97.5t169.5 31q104 0 185 -35t132 -113.5t51 -190.5v-664q0 -17 -12 -29t-29 -12h-18 q-21 0 -29 14l-6.5 13t-7.5 14.5t-10.5 10.5t-16.5 5q-11 0 -37 -12t-54.5 -26.5t-77.5 -26.5t-101 -12q-180 0 -276.5 94t-96.5 233zM297 309q0 -104 69.5 -159.5t172.5 -55.5q142 0 218.5 66t76.5 190v123q0 9 -6 15t-15 6h-299q-91 0 -154 -49t-63 -136zM369 1372 q0 94 65.5 159.5t159.5 65.5t159.5 -65.5t65.5 -159.5t-65.5 -159.5t-159.5 -65.5t-159.5 65.5t-65.5 159.5zM479 1372q0 -47 34 -81t81 -34q49 0 81 33.5t32 81.5q0 50 -31.5 81.5t-81.5 31.5q-48 0 -81.5 -32t-33.5 -81z" />
<glyph unicode="&#xe6;" d="M12 307q0 127 87 213t231 86h137q20 0 20 21v80q0 102 -40 163.5t-113 61.5q-82 0 -126 -48.5t-44 -131.5q0 -16 -9 -24.5t-17 -9.5t-21 -1h-29q-41 0 -41 41q0 131 81 208.5t206 77.5q134 0 205 -94q11 -14 30 -14t31 14q81 94 209 94q137 0 222 -116.5t85 -292.5v-131 q-2 -18 -13 -29.5t-28 -11.5h-444q-9 0 -15 -6t-6 -15q0 -155 50 -248.5t149 -93.5q139 0 178 193q8 35 47 35h35q17 0 27.5 -10.5t7.5 -30.5q-13 -84 -48 -151t-99.5 -111.5t-147.5 -44.5q-141 0 -217 98q-12 17 -41 17t-41 -19q-67 -96 -197 -96q-77 0 -137 28t-94.5 75.5 t-52 104t-17.5 119.5zM133 309q0 -104 46 -159.5t134 -55.5q80 0 130.5 78t50.5 207v94q0 9 -6 15t-15 6h-143q-88 0 -142.5 -51.5t-54.5 -133.5zM614 598q0 -20 21 -20h348q21 0 21 20q0 151 -47.5 238.5t-145.5 87.5q-91 0 -144 -87t-53 -239z" />
<glyph unicode="&#xe7;" d="M166 369q-10 143 0 286q12 167 123.5 278t290.5 111q167 0 276 -103t109 -245q0 -18 -9 -29.5t-26 -11.5h-47q-15 0 -27 8.5t-12 24.5q0 97 -71.5 166.5t-192.5 69.5q-73 0 -129.5 -26t-89 -68t-49.5 -86t-21 -89q-14 -143 0 -286q4 -45 21 -89t49.5 -86t89 -68 t129.5 -26q125 0 193.5 72t68.5 162q0 35 39 35h43q17 0 29 -12t12 -29q0 -142 -109 -245t-276 -103q-179 0 -290.5 111t-123.5 278zM440 -373l78 248q9 33 39 33h55q19 0 27.5 -11t5.5 -26l-57 -248q-9 -33 -39 -33h-76q-19 0 -28.5 11.5t-4.5 25.5z" />
<glyph unicode="&#xe8;" d="M152 369q-10 143 0 286q12 167 126 278t293 111q171 0 290.5 -120t119.5 -289v-131q0 -17 -12 -29t-29 -12h-649q-9 0 -15 -6t-6 -15q0 -156 74.5 -249t226.5 -93q110 0 179.5 56t95.5 137q10 35 47 35h41q17 0 27.5 -10.5t7.5 -30.5q-19 -135 -129.5 -221t-268.5 -86 q-179 0 -293 111t-126 278zM274 598q0 -20 21 -20h553q20 0 20 20q0 153 -82.5 239.5t-212.5 86.5q-138 0 -218.5 -85.5t-80.5 -240.5zM324.5 1478q6.5 17 25.5 17h119q14 0 25.5 -6.5t15.5 -11t12 -15.5l156 -223q8 -11 -1 -26t-28 -15h-39q-36 0 -61 25l-221 229 q-10 9 -3.5 26z" />
<glyph unicode="&#xe9;" d="M152 369q-10 143 0 286q12 167 126 278t293 111q171 0 290.5 -120t119.5 -289v-131q0 -17 -12 -29t-29 -12h-649q-9 0 -15 -6t-6 -15q0 -156 74.5 -249t226.5 -93q110 0 179.5 56t95.5 137q10 35 47 35h41q17 0 27.5 -10.5t7.5 -30.5q-19 -135 -129.5 -221t-268.5 -86 q-179 0 -293 111t-126 278zM274 598q0 -20 21 -20h553q20 0 20 20q0 153 -82.5 239.5t-212.5 86.5q-138 0 -218.5 -85.5t-80.5 -240.5zM489 1239l156 223q8 11 12 15.5t15.5 11t25.5 6.5h119q19 0 26 -17t-3 -26l-222 -229q-25 -25 -61 -25h-39q-19 0 -28 15t-1 26z" />
<glyph unicode="&#xea;" d="M152 369q-10 143 0 286q12 167 126 278t293 111q171 0 290.5 -120t119.5 -289v-131q0 -17 -12 -29t-29 -12h-649q-9 0 -15 -6t-6 -15q0 -156 74.5 -249t226.5 -93q110 0 179.5 56t95.5 137q10 35 47 35h41q17 0 27.5 -10.5t7.5 -30.5q-19 -135 -129.5 -221t-268.5 -86 q-179 0 -293 111t-126 278zM257 1215q-7 17 3 26l242 229q25 25 61 25h45q35 0 60 -25l241 -229q10 -9 3.5 -26t-25.5 -17h-88q-31 0 -64 33l-137 133q-14 14 -29 0l-135 -133q-33 -33 -63 -33h-88q-19 0 -26 17zM274 598q0 -20 21 -20h553q20 0 20 20q0 153 -82.5 239.5 t-212.5 86.5q-138 0 -218.5 -85.5t-80.5 -240.5z" />
<glyph unicode="&#xeb;" d="M152 369q-10 143 0 286q12 167 126 278t293 111q171 0 290.5 -120t119.5 -289v-131q0 -17 -12 -29t-29 -12h-649q-9 0 -15 -6t-6 -15q0 -156 74.5 -249t226.5 -93q110 0 179.5 56t95.5 137q10 35 47 35h41q17 0 27.5 -10.5t7.5 -30.5q-19 -135 -129.5 -221t-268.5 -86 q-179 0 -293 111t-126 278zM274 598q0 -20 21 -20h553q20 0 20 20q0 153 -82.5 239.5t-212.5 86.5q-138 0 -218.5 -85.5t-80.5 -240.5zM322 1307v108q0 12 9.5 22.5t22.5 10.5h107q13 0 23 -10.5t10 -22.5v-108q0 -13 -10 -23t-23 -10h-107q-13 0 -22.5 9.5t-9.5 23.5z M672 1307v108q0 12 10 22.5t23 10.5h106q13 0 23 -10.5t10 -22.5v-108q0 -13 -10 -23t-23 -10h-106q-13 0 -23 10t-10 23z" />
<glyph unicode="&#xec;" d="M207 41v41q0 17 12 29t29 12h276q21 0 21 20v738q0 20 -21 20h-256q-17 0 -29 12t-12 29v41q0 17 12 29t29 12h359q17 0 29 -12t12 -29v-840q0 -20 20 -20h268q17 0 29 -12t12 -29v-41q0 -17 -12 -29t-29 -12h-708q-17 0 -29 12t-12 29zM345 1478q7 17 26 17h118 q30 0 54 -33l155 -223q8 -11 -0.5 -26t-27.5 -15h-39q-37 0 -62 25l-221 229q-10 9 -3 26z" />
<glyph unicode="&#xed;" d="M207 41v41q0 17 12 29t29 12h276q21 0 21 20v738q0 20 -21 20h-256q-17 0 -29 12t-12 29v41q0 17 12 29t29 12h359q17 0 29 -12t12 -29v-840q0 -20 20 -20h268q17 0 29 -12t12 -29v-41q0 -17 -12 -29t-29 -12h-708q-17 0 -29 12t-12 29zM489 1239l156 223q8 11 12 15.5 t15.5 11t25.5 6.5h119q19 0 26 -17t-3 -26l-222 -229q-25 -25 -61 -25h-39q-19 0 -28 15t-1 26z" />
<glyph unicode="&#xee;" d="M207 41v41q0 17 12 29t29 12h276q21 0 21 20v738q0 20 -21 20h-256q-17 0 -29 12t-12 29v41q0 17 12 29t29 12h359q17 0 29 -12t12 -29v-840q0 -20 20 -20h268q17 0 29 -12t12 -29v-41q0 -17 -12 -29t-29 -12h-708q-17 0 -29 12t-12 29zM277.5 1215q-6.5 17 3.5 26 l241 229q25 25 62 25h45q34 0 59 -25l242 -229q10 -9 3 -26t-26 -17h-88q-30 0 -63 33l-138 133q-14 14 -28 0l-135 -133q-33 -33 -64 -33h-88q-19 0 -25.5 17z" />
<glyph unicode="&#xef;" d="M207 41v41q0 17 12 29t29 12h276q21 0 21 20v738q0 20 -21 20h-256q-17 0 -29 12t-12 29v41q0 17 12 29t29 12h359q17 0 29 -12t12 -29v-840q0 -20 20 -20h268q17 0 29 -12t12 -29v-41q0 -17 -12 -29t-29 -12h-708q-17 0 -29 12t-12 29zM342 1307v108q0 12 10 22.5 t23 10.5h106q13 0 23 -10.5t10 -22.5v-108q0 -13 -10 -23t-23 -10h-106q-13 0 -23 10t-10 23zM692 1307v108q0 12 10 22.5t23 10.5h106q13 0 23 -10.5t10 -22.5v-108q0 -13 -10 -23t-23 -10h-106q-13 0 -23 10t-10 23z" />
<glyph unicode="&#xf0;" d="M145 369q-7 92 0 184q12 167 126.5 278t293.5 111q158 0 252 -100q7 -8 15 -5t8 13q-6 182 -97 334q-4 8 -10.5 10t-9.5 -2l-176 -102q-17 -10 -37.5 -2t-20.5 30v23q0 15 1 22t8 16.5t22 18.5l101 57q12 8 7 19t-18 16q-61 23 -129 23h-73q-17 0 -29 12t-12 29v39 q0 17 12 29t29 12h73q133 0 250 -82q11 -6 19 0l149 92q15 10 33 0.5t18 -29.5v-35q0 -20 -5.5 -30t-20.5 -19l-86 -55q-15 -12 -9 -21q112 -151 140 -395q29 -268 6 -491q-18 -170 -125.5 -279.5t-284.5 -109.5q-179 0 -293.5 111t-126.5 278zM272 369q3 -35 13.5 -70 t33.5 -71.5t55.5 -64.5t82 -45.5t108.5 -17.5q58 0 107 17.5t81.5 45.5t56 64.5t34.5 71.5t14 70q7 92 0 184q-3 44 -21 88.5t-51.5 86t-91 67.5t-129.5 26q-74 0 -131.5 -26t-90.5 -67.5t-50.5 -86t-20.5 -88.5q-7 -92 0 -184z" />
<glyph unicode="&#xf1;" d="M182 41v942q0 17 12 29t29 12h33q15 0 29 -14q1 -2 5 -6.5t6 -6.5t5.5 -6t6.5 -6t7 -4t9 -3t10 -1q22 0 52 16.5t78 33.5t114 17q166 0 266 -92.5t100 -263.5v-647q0 -17 -12 -29t-29 -12h-39q-17 0 -29 12t-12 29v647q0 122 -70.5 179t-189.5 57q-110 0 -185 -65.5 t-75 -160.5v-657q0 -17 -12 -29t-29 -12h-39q-17 0 -29 12t-12 29zM274 1282v49q0 41 43 73t103 32q64 0 140 -26t147 -26q60 0 94 43q12 17 31.5 8.5t19.5 -36.5v-49q0 -41 -42.5 -73t-102.5 -32q-65 0 -140.5 25.5t-146.5 25.5q-57 0 -94 -43q-12 -15 -32 -6.5t-20 35.5z " />
<glyph unicode="&#xf2;" d="M150 369q-10 143 0 286q12 168 123 278.5t290 110.5t290.5 -111t123.5 -278q10 -143 0 -286q-12 -167 -123.5 -278t-290.5 -111t-290 110.5t-123 278.5zM274 369q4 -45 21 -89t49.5 -86t89 -68t129.5 -26t129.5 26t89 68t49.5 86t21 89q14 143 0 286q-4 45 -21 89 t-49.5 86t-89 68t-129.5 26t-129.5 -26t-89 -68t-49.5 -86t-21 -89q-14 -143 0 -286zM324.5 1478q6.5 17 25.5 17h119q14 0 25.5 -6.5t15.5 -11t12 -15.5l156 -223q8 -11 -1 -26t-28 -15h-39q-36 0 -61 25l-221 229q-10 9 -3.5 26z" />
<glyph unicode="&#xf3;" d="M150 369q-10 143 0 286q12 168 123 278.5t290 110.5t290.5 -111t123.5 -278q10 -143 0 -286q-12 -167 -123.5 -278t-290.5 -111t-290 110.5t-123 278.5zM274 369q4 -45 21 -89t49.5 -86t89 -68t129.5 -26t129.5 26t89 68t49.5 86t21 89q14 143 0 286q-4 45 -21 89 t-49.5 86t-89 68t-129.5 26t-129.5 -26t-89 -68t-49.5 -86t-21 -89q-14 -143 0 -286zM469 1239l156 223q8 11 12 15.5t15.5 11t25.5 6.5h119q19 0 25.5 -17t-3.5 -26l-221 -229q-25 -25 -61 -25h-39q-19 0 -28 15t-1 26z" />
<glyph unicode="&#xf4;" d="M150 369q-10 143 0 286q12 168 123 278.5t290 110.5t290.5 -111t123.5 -278q10 -143 0 -286q-12 -167 -123.5 -278t-290.5 -111t-290 110.5t-123 278.5zM236.5 1215q-6.5 17 3.5 26l241 229q25 25 62 25h45q34 0 59 -25l242 -229q10 -9 3 -26t-26 -17h-88q-30 0 -63 33 l-137 133q-14 14 -29 0l-135 -133q-33 -33 -64 -33h-88q-19 0 -25.5 17zM274 369q4 -45 21 -89t49.5 -86t89 -68t129.5 -26t129.5 26t89 68t49.5 86t21 89q14 143 0 286q-4 45 -21 89t-49.5 86t-89 68t-129.5 26t-129.5 -26t-89 -68t-49.5 -86t-21 -89q-14 -143 0 -286z" />
<glyph unicode="&#xf5;" d="M150 369q-10 143 0 286q12 168 123 278.5t290 110.5t290.5 -111t123.5 -278q10 -143 0 -286q-12 -167 -123.5 -278t-290.5 -111t-290 110.5t-123 278.5zM274 369q4 -45 21 -89t49.5 -86t89 -68t129.5 -26t129.5 26t89 68t49.5 86t21 89q14 143 0 286q-4 45 -21 89 t-49.5 86t-89 68t-129.5 26t-129.5 -26t-89 -68t-49.5 -86t-21 -89q-14 -143 0 -286zM274 1282v49q0 41 43 73t103 32q64 0 140 -26t147 -26q60 0 94 43q12 17 31.5 8.5t19.5 -36.5v-49q0 -41 -42.5 -73t-102.5 -32q-65 0 -140.5 25.5t-146.5 25.5q-57 0 -94 -43 q-12 -15 -32 -6.5t-20 35.5z" />
<glyph unicode="&#xf6;" d="M150 369q-10 143 0 286q12 168 123 278.5t290 110.5t290.5 -111t123.5 -278q10 -143 0 -286q-12 -167 -123.5 -278t-290.5 -111t-290 110.5t-123 278.5zM274 369q4 -45 21 -89t49.5 -86t89 -68t129.5 -26t129.5 26t89 68t49.5 86t21 89q14 143 0 286q-4 45 -21 89 t-49.5 86t-89 68t-129.5 26t-129.5 -26t-89 -68t-49.5 -86t-21 -89q-14 -143 0 -286zM301 1307v108q0 12 10 22.5t23 10.5h106q13 0 23 -10.5t10 -22.5v-108q0 -13 -9.5 -23t-23.5 -10h-106q-14 0 -23.5 10t-9.5 23zM651 1307v108q0 12 10 22.5t23 10.5h107q13 0 22.5 -10.5 t9.5 -22.5v-108q0 -14 -9.5 -23.5t-22.5 -9.5h-107q-14 0 -23.5 10t-9.5 23z" />
<glyph unicode="&#xf7;" d="M133 483v62q0 17 12 29t29 12h778q17 0 29 -12t12 -29v-62q0 -17 -12 -29t-29 -12h-778q-17 0 -29 12t-12 29zM446 41v143q0 17 12 29t29 12h144q17 0 29 -12t12 -29v-143q0 -17 -12 -29t-29 -12h-144q-17 0 -29 12t-12 29zM446 819v144q0 17 12 29t29 12h144 q17 0 29 -12t12 -29v-144q0 -17 -12 -29t-29 -12h-144q-17 0 -29 12t-12 29z" />
<glyph unicode="&#xf8;" d="M120 15.5q-6 15.5 9 35.5l78 99q3 3 4.5 6t1 5t-0.5 3.5t-1.5 3t-1.5 2.5q-53 86 -62 199q-10 143 0 286q12 167 123.5 278t290.5 111q156 0 268 -94q8 -8 15 2l33 41q25 31 45 31h53q21 0 28.5 -16t-6.5 -35l-82 -105q-8 -10 -2 -16q53 -86 62 -197q10 -143 0 -286 q-12 -167 -123.5 -278t-290.5 -111q-157 0 -266 88q-7 7 -14 -2l-27 -35q-25 -31 -47 -31h-60q-21 0 -27 15.5zM272 369q3 -41 21 -88q7 -14 14 -5l449 564q6 8 0 14q-81 70 -195 70q-73 0 -129.5 -26t-89 -68t-49.5 -86t-21 -89q-14 -143 0 -286zM373 162q75 -62 188 -62 q73 0 129.5 26t89 68t49.5 86t21 89q14 143 0 286q-6 44 -23 88q-5 9 -12 0l-442 -563q-8 -10 0 -18z" />
<glyph unicode="&#xf9;" d="M182 336v647q0 17 12 29t29 12h39q17 0 29 -12t12 -29v-647q0 -122 70.5 -179t189.5 -57q110 0 185 65.5t75 160.5v657q0 17 12 29t29 12h39q17 0 29 -12t12 -29v-942q0 -17 -12 -29t-29 -12h-33q-14 0 -28 14q-1 2 -5 6.5t-6 6.5t-5.5 6t-6.5 6t-7 4t-9 3t-10 1 q-22 0 -52 -16.5t-78 -33.5t-114 -17q-166 0 -266.5 93t-100.5 263zM304 1478q7 17 26 17h119q14 0 25.5 -6.5t15.5 -11t12 -15.5l155 -223q8 -11 -0.5 -26t-27.5 -15h-39q-37 0 -62 25l-221 229q-10 9 -3 26z" />
<glyph unicode="&#xfa;" d="M182 336v647q0 17 12 29t29 12h39q17 0 29 -12t12 -29v-647q0 -122 70.5 -179t189.5 -57q110 0 185 65.5t75 160.5v657q0 17 12 29t29 12h39q17 0 29 -12t12 -29v-942q0 -17 -12 -29t-29 -12h-33q-14 0 -28 14q-1 2 -5 6.5t-6 6.5t-5.5 6t-6.5 6t-7 4t-9 3t-10 1 q-22 0 -52 -16.5t-78 -33.5t-114 -17q-166 0 -266.5 93t-100.5 263zM469 1239l156 223q8 11 12 15.5t15.5 11t25.5 6.5h119q19 0 25.5 -17t-3.5 -26l-221 -229q-25 -25 -61 -25h-39q-19 0 -28 15t-1 26z" />
<glyph unicode="&#xfb;" d="M182 336v647q0 17 12 29t29 12h39q17 0 29 -12t12 -29v-647q0 -122 70.5 -179t189.5 -57q110 0 185 65.5t75 160.5v657q0 17 12 29t29 12h39q17 0 29 -12t12 -29v-942q0 -17 -12 -29t-29 -12h-33q-14 0 -28 14q-1 2 -5 6.5t-6 6.5t-5.5 6t-6.5 6t-7 4t-9 3t-10 1 q-22 0 -52 -16.5t-78 -33.5t-114 -17q-166 0 -266.5 93t-100.5 263zM236.5 1215q-6.5 17 3.5 26l241 229q25 25 62 25h45q34 0 59 -25l242 -229q10 -9 3 -26t-26 -17h-88q-30 0 -63 33l-137 133q-14 14 -29 0l-135 -133q-33 -33 -64 -33h-88q-19 0 -25.5 17z" />
<glyph unicode="&#xfc;" d="M182 336v647q0 17 12 29t29 12h39q17 0 29 -12t12 -29v-647q0 -122 70.5 -179t189.5 -57q110 0 185 65.5t75 160.5v657q0 17 12 29t29 12h39q17 0 29 -12t12 -29v-942q0 -17 -12 -29t-29 -12h-33q-14 0 -28 14q-1 2 -5 6.5t-6 6.5t-5.5 6t-6.5 6t-7 4t-9 3t-10 1 q-22 0 -52 -16.5t-78 -33.5t-114 -17q-166 0 -266.5 93t-100.5 263zM301 1307v108q0 12 10 22.5t23 10.5h106q13 0 23 -10.5t10 -22.5v-108q0 -13 -9.5 -23t-23.5 -10h-106q-14 0 -23.5 10t-9.5 23zM651 1307v108q0 12 10 22.5t23 10.5h107q13 0 22.5 -10.5t9.5 -22.5v-108 q0 -14 -9.5 -23.5t-22.5 -9.5h-107q-14 0 -23.5 10t-9.5 23z" />
<glyph unicode="&#xfd;" d="M125 977q-6 16 5 31.5t34 15.5h57q28 0 39 -31l315 -753q3 -8 8.5 -8t8.5 8l274 753q11 31 39 31h58q23 0 34 -15.5t4 -31.5l-520 -1356q-11 -31 -39 -31h-45q-23 0 -34.5 16t-4.5 32l152 411q6 16 2 27zM469 1239l156 223q8 11 12 15.5t15.5 11t25.5 6.5h119 q19 0 25.5 -17t-3.5 -26l-221 -229q-25 -25 -61 -25h-39q-19 0 -28 15t-1 26z" />
<glyph unicode="&#xfe;" d="M172 -369v1776q0 17 12 29t29 12h39q17 0 29 -12t12 -29v-371q0 -15 12.5 -29t32.5 -14q14 0 90.5 25.5t130.5 25.5q158 0 267.5 -112.5t121.5 -276.5q10 -143 0 -286q-12 -164 -121.5 -276.5t-267.5 -112.5q-54 0 -130.5 25.5t-90.5 25.5q-20 0 -32.5 -14t-12.5 -29 v-357q0 -17 -12 -29t-29 -12h-39q-17 0 -29 12t-12 29zM297 369q3 -36 12 -70.5t28.5 -71t46.5 -64t70 -45.5t95 -18q71 0 124.5 26t83.5 68.5t45.5 85.5t20.5 89q17 143 0 286q-5 46 -20.5 89t-45 85.5t-83.5 68.5t-125 26q-52 0 -95 -18t-70 -45.5t-46.5 -64t-28.5 -71 t-12 -70.5q-14 -143 0 -286z" />
<glyph unicode="&#xff;" d="M125 977q-6 16 5 31.5t34 15.5h57q28 0 39 -31l315 -753q3 -8 8.5 -8t8.5 8l274 753q11 31 39 31h58q23 0 34 -15.5t4 -31.5l-520 -1356q-11 -31 -39 -31h-45q-23 0 -34.5 16t-4.5 32l152 411q6 16 2 27zM301 1307v108q0 12 10 22.5t23 10.5h106q13 0 23 -10.5t10 -22.5 v-108q0 -13 -9.5 -23t-23.5 -10h-106q-14 0 -23.5 10t-9.5 23zM651 1307v108q0 12 10 22.5t23 10.5h107q13 0 22.5 -10.5t9.5 -22.5v-108q0 -14 -9.5 -23.5t-22.5 -9.5h-107q-14 0 -23.5 10t-9.5 23z" />
<glyph unicode="&#x152;" horiz-adv-x="1024" d="M44 717.5q0 183.5 17 306.5q12 86 44 158.5t84.5 129.5t131.5 89.5t177 32.5h456q17 0 29 -12t12 -29v-50q0 -17 -12 -28.5t-29 -11.5h-268q-20 0 -20 -21v-465q0 -20 20 -20h246q17 0 29 -12t12 -29v-47q0 -17 -12 -29t-29 -12h-246q-20 0 -20 -21v-495q0 -21 20 -21 h272q17 0 29 -12t12 -29v-49q0 -17 -12 -29t-29 -12h-460q-185 0 -298 106t-139 304q-17 124 -17 307.5zM180 717q0 -181 19 -307q7 -51 23.5 -95t48.5 -88t90 -70t137 -26q17 0 29 12t12 29v1090q0 17 -12 29t-29 12q-136 0 -208 -77t-91 -202q-19 -126 -19 -307z" />
<glyph unicode="&#x153;" d="M12 522q0 150 33.5 265.5t106 186t176.5 70.5q70 0 108 -20.5t78 -65.5q15 -17 37.5 -19t44.5 17q81 88 203 88q137 0 222 -116.5t85 -292.5v-131q-2 -18 -13 -29.5t-28 -11.5h-444q-9 0 -15 -6t-6 -15q0 -155 50 -248.5t149 -93.5q139 0 178 193q8 35 47 35h35 q17 0 27.5 -10.5t7.5 -30.5q-13 -84 -48 -151t-99.5 -111.5t-147.5 -44.5q-136 0 -201 77q-13 17 -43 17t-47 -15q-35 -29 -53 -41.5t-53 -25t-74 -12.5q-80 0 -142 42.5t-99.5 118t-56 172t-18.5 209.5zM147 522q0 -87 9.5 -160t30 -133.5t56.5 -94.5t85 -34t82.5 33.5 t50.5 96t24 132t7 160.5q0 90 -7 157t-24 125.5t-50.5 89t-82.5 30.5q-65 0 -106.5 -56t-58 -142.5t-16.5 -203.5zM604 598q0 -20 21 -20h348q20 0 20 20q0 151 -47 238.5t-145 87.5q-91 0 -144 -87t-53 -239z" />
<glyph unicode="&#x178;" d="M135 1376q-9 23 1.5 40.5t31.5 17.5h65q28 0 39 -31l285 -731q3 -8 8 -8t8 8l281 731q11 31 39 31h65q21 0 31.5 -17.5t1.5 -40.5l-358 -882v-453q0 -17 -12 -29t-29 -12h-53q-17 0 -29 12t-12 29v451zM301 1593v109q0 12 10 22.5t23 10.5h106q13 0 23 -10.5t10 -22.5 v-109q0 -13 -9.5 -22.5t-23.5 -9.5h-106q-14 0 -23.5 9.5t-9.5 22.5zM651 1593v109q0 12 10 22.5t23 10.5h107q13 0 22.5 -10.5t9.5 -22.5v-109q0 -13 -9.5 -22.5t-22.5 -9.5h-107q-14 0 -23.5 9.5t-9.5 22.5z" />
<glyph unicode="&#x2c6;" d="M236.5 1215q-6.5 17 3.5 26l241 229q25 25 62 25h45q34 0 59 -25l242 -229q10 -9 3 -26t-26 -17h-88q-30 0 -63 33l-137 133q-14 14 -29 0l-135 -133q-33 -33 -64 -33h-88q-19 0 -25.5 17z" />
<glyph unicode="&#x2dc;" d="M274 1282v49q0 41 43 73t103 32q64 0 140 -26t147 -26q60 0 94 43q12 17 31.5 8.5t19.5 -36.5v-49q0 -41 -42.5 -73t-102.5 -32q-65 0 -140.5 25.5t-146.5 25.5q-57 0 -94 -43q-12 -15 -32 -6.5t-20 35.5z" />
<glyph unicode="&#x2000;" horiz-adv-x="973" />
<glyph unicode="&#x2001;" horiz-adv-x="1946" />
<glyph unicode="&#x2002;" horiz-adv-x="973" />
<glyph unicode="&#x2003;" horiz-adv-x="1946" />
<glyph unicode="&#x2004;" horiz-adv-x="648" />
<glyph unicode="&#x2005;" horiz-adv-x="486" />
<glyph unicode="&#x2006;" horiz-adv-x="324" />
<glyph unicode="&#x2007;" horiz-adv-x="324" />
<glyph unicode="&#x2008;" horiz-adv-x="243" />
<glyph unicode="&#x2009;" horiz-adv-x="389" />
<glyph unicode="&#x200a;" horiz-adv-x="108" />
<glyph unicode="&#x2010;" d="M242 510v72q0 17 12 29t29 12h559q17 0 29 -12t12 -29v-72q0 -17 -12 -29t-29 -12h-559q-17 0 -29 12t-12 29z" />
<glyph unicode="&#x2011;" d="M242 510v72q0 17 12 29t29 12h559q17 0 29 -12t12 -29v-72q0 -17 -12 -29t-29 -12h-559q-17 0 -29 12t-12 29z" />
<glyph unicode="&#x2012;" d="M242 510v72q0 17 12 29t29 12h559q17 0 29 -12t12 -29v-72q0 -17 -12 -29t-29 -12h-559q-17 0 -29 12t-12 29z" />
<glyph unicode="&#x2013;" d="M133 504v61q0 17 12 29t29 12h778q17 0 29 -12t12 -29v-61q0 -17 -12 -29t-29 -12h-778q-17 0 -29 12t-12 29z" />
<glyph unicode="&#x2014;" d="M-20 504v61q0 17 11.5 29t28.5 12h1086q17 0 29 -12t12 -29v-61q0 -17 -12 -29t-29 -12h-1086q-17 0 -28.5 12t-11.5 29z" />
<glyph unicode="&#x2018;" d="M451 1024v154q0 27 5.5 48t10 29.5t16.5 26.5l82 115l3 5q4 4 4.5 5t4 5.5t5.5 6l6 4.5t7.5 4.5t8 3.5t10 2.5t11.5 0.5h20q19 0 29.5 -16t1.5 -34l-78 -145q-6 -11 -1 -21t17 -10h21q17 0 29 -12t12 -29v-143q0 -17 -12 -29t-29 -12h-143q-17 0 -29 12t-12 29z" />
<glyph unicode="&#x2019;" d="M453 1032l77 146q6 10 1 20t-17 10h-20q-17 0 -29 12t-12 29v144q0 17 12 29t29 12h143q17 0 29 -12t12 -29v-154q0 -26 -6 -48t-10 -29t-17 -27l-82 -115q-1 -1 -4 -5.5t-4.5 -6.5t-5 -6t-6 -6t-7 -5t-9 -4.5t-10.5 -2.5t-13 -1h-21q-19 0 -29 15.5t-1 33.5z" />
<glyph unicode="&#x201a;" d="M453 41v143q0 17 12 29t29 12h143q17 0 29 -12t12 -29v-153q0 -26 -6 -48t-10.5 -30t-16.5 -27l-82 -114q-1 -1 -4 -5.5t-4.5 -6.5t-5 -6t-6 -6t-7 -5t-9 -4.5t-10.5 -2.5t-13 -1h-21q-19 0 -29 15.5t-1 33.5l77 145q6 11 1 21t-17 10h-20q-17 0 -29 12t-12 29z" />
<glyph unicode="&#x201c;" d="M283 1024v154q0 27 5.5 48t10 29.5t16.5 26.5l82 115l3 5q4 4 4.5 5t4 5.5t5.5 6l6 4.5t7.5 4.5t8 3.5t10 2.5t11.5 0.5h20q19 0 29.5 -16t1.5 -34l-78 -145q-6 -11 -1 -21t17 -10h21q17 0 29 -12t12 -29v-143q0 -17 -12 -29t-29 -12h-143q-17 0 -29 12t-12 29zM614 1024 v154q0 26 6 48t10 29t17 27l82 115q1 1 4 5.5t4.5 6.5t5 6t6 6t7 5t9 4.5t10.5 2.5t13 1h21q19 0 29.5 -16t1.5 -34l-78 -145q-6 -11 -1 -21t17 -10h21q17 0 29 -12t12 -29v-143q0 -17 -12 -29t-29 -12h-144q-17 0 -29 12t-12 29z" />
<glyph unicode="&#x201d;" d="M287 1032l78 146q6 10 0.5 20t-17.5 10h-20q-17 0 -29 12t-12 29v144q0 17 12 29t29 12h143q17 0 29 -12t12 -29v-154q0 -26 -6 -48t-10 -29t-17 -27l-82 -115q-1 -1 -4 -5.5t-4.5 -6.5t-5 -6t-6 -6t-7 -5t-9 -4.5t-10.5 -2.5t-13 -1h-21q-19 0 -29 15.5t-1 33.5z M618 1032l78 146q6 10 1 20t-17 10h-21q-17 0 -29 12t-12 29v144q0 17 12 29t29 12h144q17 0 29 -12t12 -29v-154q0 -26 -6 -48t-10 -29t-17 -27l-82 -115q-1 -1 -4 -5.5t-4.5 -6.5t-5 -6t-6 -6t-7 -5t-9 -4.5t-10.5 -2.5t-13 -1h-21q-19 0 -29.5 15.5t-1.5 33.5z" />
<glyph unicode="&#x201e;" d="M287 41v143q0 17 12 29t29 12h143q17 0 29 -12t12 -29v-153q0 -26 -6 -48t-10.5 -30t-16.5 -27l-82 -114q-1 -1 -4 -5.5t-4.5 -6.5t-5 -6t-6 -6t-7 -5t-9 -4.5t-10.5 -2.5t-13 -1h-21q-19 0 -29 15.5t-1 33.5l78 145q6 11 0.5 21t-17.5 10h-20q-17 0 -29 12t-12 29z M618 41v143q0 17 12 29t29 12h144q17 0 29 -12t12 -29v-153q0 -26 -6 -48t-10.5 -30t-16.5 -27l-82 -114q-1 -1 -4 -5.5t-4.5 -6.5t-5 -6t-6 -6t-7 -5t-9 -4.5t-10.5 -2.5t-13 -1h-21q-19 0 -29.5 15.5t-1.5 33.5l78 145q6 11 1 21t-17 10h-21q-17 0 -29 12t-12 29z" />
<glyph unicode="&#x2022;" d="M365 446v316q0 17 12 29t29 12h315q17 0 29 -12t12 -29v-316q0 -17 -12 -28.5t-29 -11.5h-315q-17 0 -29 11.5t-12 28.5z" />
<glyph unicode="&#x2026;" d="M70 41v156q0 17 12 29t29 12h155q17 0 29 -12t12 -29v-156q0 -17 -12 -29t-29 -12h-155q-17 0 -29 12t-12 29zM442 41v156q0 17 12 29t29 12h156q17 0 29 -12t12 -29v-156q0 -17 -12 -29t-29 -12h-156q-17 0 -29 12t-12 29zM817 41v156q0 17 12 29t29 12h156q17 0 29 -12 t12 -29v-156q0 -17 -12 -29t-29 -12h-156q-17 0 -29 12t-12 29z" />
<glyph unicode="&#x202f;" horiz-adv-x="389" />
<glyph unicode="&#x2039;" d="M392 532.5q0 11.5 11 28.5l197 330q19 31 51 31h39q31 0 40.5 -18t-7.5 -50l-174 -297q-9 -13 -9 -23.5t9 -25.5l174 -297q17 -32 7.5 -50t-40.5 -18h-39q-32 0 -51 31l-197 330q-11 17 -11 28.5z" />
<glyph unicode="&#x203a;" d="M398 161q-10 18 8 50l174 297q9 15 9 25t-9 24l-174 297q-18 32 -8 50t40 18h39q32 0 51 -31l197 -330q11 -17 11 -28.5t-11 -28.5l-197 -330q-19 -31 -51 -31h-39q-30 0 -40 18z" />
<glyph unicode="&#x205f;" horiz-adv-x="486" />
<glyph unicode="&#x20ac;" d="M45 553v51q0 17 12 29t29 12h47q17 0 17 14v150q0 12 -11 12h-53q-17 0 -29 12t-12 29v51q0 17 12 29t29 12h57q15 0 15 13q0 121 58.5 231.5t166.5 181t238 70.5q99 0 185 -35t145 -93.5t92.5 -136t33.5 -161.5v-8q0 -17 -12 -29t-29 -12h-55q-17 0 -29 12t-12 29v8 q0 119 -89 207t-230 88q-142 0 -234 -103.5t-92 -246.5q0 -15 10 -15h375q17 0 29 -12t12 -29v-51q0 -17 -12 -29t-29 -12h-385q-12 0 -12 -14v-148q0 -14 12 -14h385q17 0 29 -12t12 -29v-51q0 -17 -12 -29t-29 -12h-377q-12 0 -12 -14q0 -78 19 -145t57 -121.5 t103.5 -85.5t150.5 -31q79 0 142.5 28.5t100.5 74t56.5 95t19.5 97.5v8q0 17 12 29t29 12h55q17 0 29 -12t12 -29v-8q0 -129 -63 -227.5t-166 -148.5t-227 -50q-92 0 -175 33t-149 95.5t-104.5 162.5t-38.5 223q0 14 -13 14h-55q-17 0 -29 12t-12 29z" />
<glyph unicode="&#x2122;" d="M20 1348v65q0 8 6 14.5t15 6.5h471q7 0 13.5 -6.5t6.5 -14.5v-65q0 -8 -6.5 -14.5t-13.5 -6.5h-172q-10 0 -10 -10v-580q0 -9 -6.5 -14.5t-14.5 -5.5h-65q-8 0 -14.5 5.5t-6.5 14.5v580q0 10 -10 10h-172q-9 0 -15 6.5t-6 14.5zM586 737v676q0 8 5.5 14.5t14.5 6.5h123 q15 0 21 -19l84 -307q2 -3 5 -3t5 3l84 307q6 19 22 19h123q7 0 14 -7t7 -14v-676q0 -9 -6.5 -14.5t-14.5 -5.5h-61q-21 0 -21 20v525q0 5 -4.5 5.5t-5.5 -3.5l-80 -275q-5 -16 -20 -16h-82q-18 0 -23 16l-78 275q-2 4 -6 3.5t-4 -5.5v-525q0 -9 -6 -14.5t-14 -5.5h-62 q-20 0 -20 20z" />
<glyph unicode="&#xe000;" horiz-adv-x="1024" d="M0 0v1024h1024v-1024h-1024z" />
</font>
</defs>
</svg>
